<svg width="445" height="367" viewBox="0 0 445 367" fill="none" xmlns="http://www.w3.org/2000/svg">
<path d="M445 189.231C445 329.953 352.914 366.241 221.811 366.241C92.6237 366.241 0 321.367 0 189.231C0 76.0747 99.6172 0.179382 222.5 0.179382C345.383 0.179382 445 76.0747 445 189.231Z" fill="#274D76"/>
<path d="M367.448 301.11L233.922 17.8847C228.77 7.96043 216.122 7.96043 210.971 17.8847L83.6678 301.11C66.905 333.417 167.499 357.049 222.289 357.049C274.488 357.049 384.942 334.833 367.448 301.11Z" fill="#93B4F6"/>
<path d="M135.419 301.153C136.069 298.329 143.472 301.329 151.171 299.784C157.084 298.601 156.099 292.537 177.845 293.466C198.95 294.366 197.874 287.286 212.313 287.23C222.207 287.192 222.836 289.851 233.276 288.569C240.416 287.695 243.545 283.848 250.16 283.848C259.533 283.848 263.979 288.371 269.78 288.603C276.373 288.866 278.22 285.139 284.688 285.466C292.448 285.857 293.657 290.699 306.555 289.533C309.546 289.262 310.446 292.352 309.103 295.097C308.449 296.427 304.816 302.805 292.891 303.253C285.161 303.541 283.401 302.655 274.876 305.379C266.346 308.107 263.858 313.651 252.281 313.754C232.097 313.939 230.63 310.307 219.935 312.742C212.601 314.417 205.871 319.43 196.975 319.228C188.079 319.026 177.996 313.827 169.315 314.046C147.805 314.602 133.818 308.103 135.419 301.153Z" fill="#274D76"/>
<path d="M116.974 276.389C115.248 276.389 113.518 276.054 111.883 275.369L106.809 273.248L107.14 272.451L112.214 274.573C115.92 276.122 120.159 275.77 123.554 273.631L125.276 272.546C129.42 269.938 134.632 269.83 138.88 272.266L143.842 275.111L143.416 275.856L138.454 273.011C134.481 270.734 129.61 270.833 125.736 273.273L124.015 274.358C121.88 275.705 119.431 276.389 116.974 276.389Z" fill="white"/>
<path d="M305.776 279.208C303.852 279.208 301.92 278.782 300.168 277.926L293.674 274.749C290.429 273.161 286.401 273.17 283.165 274.775L282.782 274.005C286.306 272.258 290.515 272.249 294.053 273.975L300.547 277.151C304.037 278.859 308.285 278.73 311.633 276.815L315.825 274.422C319.294 272.443 323.727 272.245 327.402 273.915L333.939 276.884L333.582 277.667L327.045 274.698C323.619 273.144 319.483 273.325 316.251 275.171L312.059 277.564C310.149 278.657 307.962 279.208 305.776 279.208Z" fill="white"/>
<path d="M265.399 278.52L255.402 274.19C252.423 272.903 249.002 272.886 246.007 274.143L236.216 278.266L235.88 277.474L245.671 273.351C248.877 271.999 252.548 272.017 255.742 273.398L265.739 277.728L265.399 278.52Z" fill="white"/>
<path d="M197.285 283.047C195.275 283.047 193.265 282.578 191.436 281.644L188.557 280.176C185.458 278.597 181.83 278.433 178.607 279.738L171.768 282.496L171.446 281.696L178.284 278.937C181.74 277.543 185.626 277.715 188.949 279.41L191.828 280.878C195.245 282.621 199.325 282.621 202.746 280.878L205.961 279.238L206.353 280.004L203.138 281.644C201.304 282.582 199.295 283.047 197.285 283.047Z" fill="white"/>
<path d="M218.158 317.563C216.148 317.563 214.138 317.093 212.309 316.16L209.43 314.692C206.331 313.113 202.703 312.949 199.48 314.253L192.641 317.012L192.318 316.211L199.157 313.453C202.613 312.058 206.499 312.23 209.821 313.926L212.701 315.394C216.118 317.137 220.202 317.137 223.619 315.394L226.834 313.754L227.226 314.52L224.011 316.16C222.177 317.098 220.167 317.563 218.158 317.563Z" fill="white"/>
<path d="M123.894 290.949C121.816 290.949 119.741 290.548 117.787 289.744L112.976 287.76L113.303 286.963L118.115 288.947C121.979 290.544 126.378 290.462 130.182 288.728L133.81 287.075C137.739 285.281 142.301 285.16 146.316 286.744L154.412 289.933L154.098 290.733L146.002 287.544C142.198 286.047 137.886 286.163 134.167 287.859L130.539 289.511C128.439 290.467 126.167 290.949 123.894 290.949Z" fill="white"/>
<path d="M236.474 304.746L236.009 304.019L244.793 298.415C248.4 296.113 252.824 295.868 256.624 297.753L263.574 301.204C267.017 302.913 270.899 302.762 274.226 300.791L279.713 297.542C282.734 295.751 286.207 295.351 289.495 296.41L297.982 299.147L297.72 299.965L289.233 297.228C286.182 296.242 282.958 296.617 280.152 298.282L274.665 301.531C271.136 303.623 266.845 303.786 263.191 301.975L256.241 298.523C252.716 296.771 248.606 297.004 245.258 299.143L236.474 304.746Z" fill="white"/>
<path d="M202.793 298.872L202.363 298.127L210.209 293.591C212.666 292.171 215.644 292.098 218.171 293.393L221.372 295.041C223.124 295.941 225.121 296.113 226.997 295.528L232.084 293.944L232.343 294.766L227.256 296.35C225.16 297.004 222.935 296.81 220.981 295.807L217.775 294.159C215.511 292.993 212.843 293.062 210.639 294.336L202.793 298.872Z" fill="white"/>
<path d="M155.35 307.6L154.962 306.829L161.943 303.313C163.824 302.366 166.019 302.276 167.972 303.068L173.868 305.456C175.831 306.252 178.065 306.033 179.833 304.867L183.973 302.138C185.85 300.899 188.243 300.597 190.364 301.329L198.692 304.191L198.412 305.004L190.085 302.142C188.208 301.497 186.104 301.764 184.447 302.857L180.307 305.585C178.301 306.907 175.771 307.156 173.546 306.257L167.65 303.868C165.928 303.171 163.991 303.249 162.33 304.083L155.35 307.6Z" fill="white"/>
<path d="M104.64 313.392C102.634 313.392 100.633 312.923 98.7781 311.985L90.1061 307.604L90.4935 306.833L99.1654 311.215C102.518 312.91 106.391 312.966 109.795 311.374L114.646 309.102C117.835 307.608 121.544 307.475 124.832 308.74L132.734 311.778L132.424 312.583L124.523 309.545C121.454 308.366 117.99 308.486 115.012 309.885L110.161 312.157C108.397 312.979 106.516 313.392 104.64 313.392Z" fill="white"/>
<path d="M322.87 293.178C320.792 293.178 318.717 292.778 316.768 291.973L311.956 289.989L312.283 289.193L317.095 291.177C320.959 292.773 325.358 292.692 329.162 290.957L332.79 289.305C336.719 287.51 341.281 287.389 345.297 288.973L353.392 292.162L353.078 292.963L344.983 289.774C341.178 288.276 336.866 288.388 333.147 290.088L329.519 291.74C327.419 292.7 325.147 293.178 322.87 293.178Z" fill="white"/>
<path d="M331.189 313.392C329.184 313.392 327.183 312.923 325.328 311.985L316.656 307.604L317.043 306.833L325.715 311.215C329.068 312.91 332.941 312.966 336.345 311.374L341.195 309.102C344.384 307.608 348.098 307.475 351.382 308.74L359.284 311.778L358.974 312.583L351.072 309.545C348.004 308.366 344.539 308.486 341.561 309.885L336.711 312.157C334.946 312.979 333.066 313.392 331.189 313.392Z" fill="white"/>
<path d="M168.73 327.629C166.548 327.629 164.362 327.173 162.322 326.256L156.512 323.635C152.703 321.918 148.331 321.901 144.509 323.583L139.069 325.98L138.72 325.193L144.16 322.796C148.206 321.014 152.836 321.031 156.865 322.847L162.675 325.468C166.974 327.409 171.988 327.164 176.076 324.81L176.507 325.554C174.114 326.932 171.428 327.629 168.73 327.629Z" fill="white"/>
<path d="M301.589 327.267C299.725 327.267 297.857 326.863 296.101 326.049L290.283 323.347C286.444 321.565 281.882 321.926 278.375 324.289L277.398 324.948C273.641 327.478 268.752 327.866 264.642 325.955L258.117 322.925C254.726 321.35 250.866 321.41 247.526 323.093L240.64 326.562L240.253 325.791L247.139 322.322C250.715 320.523 254.846 320.459 258.479 322.146L265.003 325.176C268.842 326.957 273.404 326.6 276.916 324.238L277.893 323.579C281.65 321.049 286.534 320.661 290.644 322.568L296.463 325.27C300.242 327.026 304.597 326.738 308.113 324.496L309.731 323.467L310.192 324.194L308.574 325.223C306.443 326.579 304.02 327.267 301.589 327.267Z" fill="white"/>
<path d="M214.62 341.947C212.615 341.947 210.605 341.594 208.694 340.88L196.144 336.193C192.452 334.812 188.389 334.837 184.714 336.258L176.885 339.283L176.576 338.478L184.404 335.453C188.277 333.955 192.555 333.934 196.446 335.384L208.995 340.071C213.2 341.642 217.908 341.379 221.91 339.348L227.35 336.585C231.697 334.381 236.784 334.153 241.307 335.956L249.643 339.283L249.325 340.084L240.989 336.757C236.694 335.044 231.865 335.259 227.742 337.351L222.302 340.114C219.901 341.332 217.262 341.947 214.62 341.947Z" fill="white"/>
<path d="M69.1557 183.86H68.295V56.7938C68.295 56.2386 68.6135 55.7566 69.1256 55.5371C69.6378 55.3176 70.2058 55.4252 70.6061 55.8082L149.032 146.607L148.382 147.171L69.982 56.4022C69.7841 56.2171 69.5345 56.2989 69.4613 56.329C69.3882 56.3591 69.1557 56.4839 69.1557 56.7938V183.86V183.86Z" fill="white"/>
<path d="M324.054 142.635L329.963 129.651L264.676 160.981L237.206 195.523L250.904 211.7L279.463 199.194L324.054 142.635Z" fill="#93B4F6"/>
<path d="M220.946 97.7519L164.921 176.797L186.427 207.939L245.998 189.902L293.623 183.559L226.567 97.6443C225.134 95.7808 222.306 95.8324 220.946 97.7519Z" fill="white"/>
<path d="M222.991 99.3443L216.083 148.169L236.371 144.257L225.125 99.2797C224.841 98.1349 223.206 98.1866 222.991 99.3443Z" fill="#93B4F6"/>
<path d="M125.224 137.931L111.293 120.071C107.82 118.582 104.136 122.072 106.378 126.909C109.387 133.399 117.533 153.261 117.533 153.261L150.68 232.642L159.236 213.861L125.224 137.931Z" fill="#93B4F6"/>
<path d="M73.593 52.4902C82.8201 62.5737 151.081 136.597 170.365 157.818C169.866 160.603 165.89 160.951 165.89 160.951L72.7839 53.4499C72.3407 52.9377 72.9948 51.836 73.593 52.4902Z" fill="#93B4F6"/>
<path d="M261.93 201.328C259.779 202.99 257.179 203.936 248.52 199.28C211.504 179.384 130.569 132.414 111.289 120.066C110.157 119.343 108.754 120.454 109.197 121.723L153.095 239.106C155.729 244.886 161.788 247.83 168.11 247.188L228.198 241.619C229.033 241.533 229.868 241.426 230.699 241.288L282.196 232.904C283.991 232.612 285.523 231.458 286.294 229.814C293.399 214.704 328.822 139.33 330.656 134.746C332.321 130.576 330.6 128.385 328.659 130.43C326.257 132.969 287.318 176.582 261.93 201.328Z" fill="white"/>
<path d="M283.599 230.697C284.353 230.374 284.593 229.427 284.073 228.795C278.814 222.46 269.268 211.063 261.078 205.314C259.692 204.341 257.962 203.967 256.284 204.289C239.525 207.513 186.496 232.948 167.564 242.17C166.359 242.756 166.849 245.377 168.188 245.252C168.205 245.252 168.222 244.473 168.239 244.473L228.301 239.287C229.136 239.209 229.971 239.106 230.802 238.977L282.269 231.075C282.73 231.002 283.178 230.873 283.599 230.697Z" fill="#93B4F6"/>
<path d="M127.925 110.629L124.187 114.155L124.778 114.781L128.515 111.255L127.925 110.629Z" fill="white"/>
<path d="M121.557 118.478C121.093 118.478 120.714 118.323 120.456 118.022C119.802 117.256 120.262 115.827 121.497 114.769C122.737 113.71 124.217 113.482 124.871 114.244C125.216 114.644 125.267 115.225 125.022 115.879C124.807 116.447 124.385 117.019 123.825 117.497C123.27 117.975 122.633 118.302 122.044 118.427C121.876 118.461 121.712 118.478 121.557 118.478ZM123.77 114.648C123.326 114.648 122.672 114.902 122.061 115.423C121.17 116.185 120.826 117.127 121.114 117.463C121.243 117.613 121.519 117.656 121.876 117.583C122.323 117.493 122.831 117.222 123.275 116.843C123.718 116.464 124.062 116.004 124.221 115.578C124.35 115.238 124.35 114.954 124.221 114.803C124.131 114.7 123.972 114.648 123.77 114.648Z" fill="white"/>
<path d="M99.2173 78.682L95.9844 81.6004L96.5612 82.2394L99.7941 79.3209L99.2173 78.682Z" fill="white"/>
<path d="M93.3124 85.8436C92.839 85.8436 92.4302 85.6887 92.1677 85.3659C91.5307 84.587 92.0213 83.1668 93.2823 82.1382C93.8504 81.6734 94.4916 81.3592 95.0856 81.2516C95.7741 81.1268 96.3336 81.2818 96.6693 81.6906C97.005 82.0995 97.0437 82.6804 96.7855 83.3303C96.5617 83.8898 96.1227 84.4579 95.5546 84.9184C94.8144 85.5252 93.9924 85.8436 93.3124 85.8436ZM95.5331 82.0693C95.4471 82.0693 95.3481 82.0779 95.2448 82.0995C94.7972 82.1812 94.2808 82.4394 93.8289 82.8053C92.9208 83.5455 92.555 84.4794 92.8347 84.8237C93.1145 85.1637 94.1043 84.9915 95.0081 84.2513C95.46 83.8855 95.8129 83.4293 95.985 83.0075C96.1227 82.6675 96.127 82.3878 96.0022 82.2372C95.9162 82.1253 95.7483 82.0693 95.5331 82.0693Z" fill="white"/>
<path d="M74.5 51.9035L72.0847 54.3934L72.7025 54.9927L75.1178 52.5028L74.5 51.9035Z" fill="white"/>
<path d="M69.6293 58.7864C69.2118 58.7864 68.8504 58.6573 68.5964 58.3818C67.9078 57.6459 68.3038 56.1999 69.4959 55.0852C70.688 53.9749 72.1556 53.6779 72.8442 54.4139C73.5284 55.1498 73.1368 56.5958 71.9447 57.7105C71.1958 58.412 70.3351 58.7864 69.6293 58.7864ZM71.8027 54.8657C71.3594 54.8657 70.688 55.1498 70.0812 55.7179C69.2248 56.5183 68.9235 57.4738 69.2248 57.7965C69.526 58.1193 70.503 57.8826 71.3551 57.0821C72.2115 56.2816 72.5128 55.3262 72.2115 55.0035C72.1254 54.9131 71.9834 54.8657 71.8027 54.8657Z" fill="white"/>
<path d="M71.4325 199.323C72.5041 199.121 73.4294 198.901 74.1955 198.686C72.5945 190.642 70.1586 184.462 68.6653 184.746C67.1719 185.03 67.1676 191.675 68.6265 199.745C69.4184 199.659 70.3566 199.525 71.4325 199.323Z" fill="#FFF3A1"/>
<path d="M71.6734 200.593C70.7611 200.765 69.7928 200.924 68.8675 201.027C70.4684 209.17 72.9344 215.457 74.4407 215.173C75.947 214.889 75.9384 208.133 74.4407 199.969C73.5455 200.21 72.5858 200.416 71.6734 200.593Z" fill="#74BAAB"/>
<path d="M74.5398 246.113H73.679V265.01H74.5398V246.113Z" fill="white"/>
<path d="M74.5398 216.43H73.679V237.759H74.5398V216.43Z" fill="white"/>
<path d="M74.1093 244.516C72.5342 244.516 72.0866 241.697 71.979 241.038C71.7854 239.877 72.9344 238.908 74.1093 238.908C75.2886 238.908 76.4376 239.881 76.2397 241.038C76.1321 241.693 75.7275 244.516 74.1093 244.516Z" fill="#74BAAB"/>
<path d="M74.118 280.426C71.2174 280.426 68.8546 278.063 68.8546 275.162C68.8546 272.933 69.9951 271.715 71.0926 270.54C72.3664 269.176 73.6877 267.769 73.6877 264.588H74.5484C74.5484 268.109 73.0464 269.714 71.7252 271.13C70.6493 272.283 69.7197 273.277 69.7197 275.167C69.7197 277.594 71.6951 279.569 74.1223 279.569C76.5496 279.569 78.525 277.594 78.525 275.167C78.525 274.284 78.2668 273.437 77.7762 272.709L78.4906 272.227C79.0759 273.097 79.3858 274.112 79.3858 275.167C79.3814 278.063 77.0187 280.426 74.118 280.426Z" fill="white"/>
<path d="M75.5897 275.184L75.3616 274.353C77.5264 273.764 77.5651 272.085 77.5651 272.072L78.4258 272.081C78.4215 272.886 77.819 274.577 75.5897 275.184Z" fill="white"/>
<path d="M66.2046 169.297L65.3602 169.464L68.2198 183.924L69.0642 183.757L66.2046 169.297Z" fill="white"/>
<path d="M254.141 183.744C256.508 178.872 261.534 175.085 268.334 175.351C269.754 171.452 276.292 159.751 275.048 151.066C273.912 143.126 267.529 140.324 262.102 138.538C261.435 138.318 260.803 138.112 260.187 137.914C267.026 144.541 263.084 157.887 260.467 166.154C258.522 172.304 255.595 179.999 254.141 183.744Z" fill="#FFF3A1"/>
<path d="M277.561 179.926C281.181 177.176 285.226 177.572 288.312 178.437C281.998 175.605 271.837 175.661 268.334 175.351C260.51 175.042 255.036 180.103 253.254 186.003C250.784 194.184 250 196.16 250 196.16C256.456 195.902 260.876 195.549 269.599 193.238C274.536 188.663 271.777 184.32 277.561 179.926Z" fill="#F2BDBA"/>
<path d="M260.467 166.159C263.08 157.891 267.022 144.546 260.187 137.918C253.465 135.762 249.329 134.819 241.914 134.372C241.914 134.372 224.755 134.488 220.486 137.178C210.816 143.28 202.677 157.121 194.1 168.556C194.1 168.556 235.781 193.031 248.908 199.542C249.377 198.578 249.278 197.593 249.996 196.164C249.996 196.164 250.784 194.189 253.25 186.007C253.482 185.237 253.779 184.48 254.136 183.748C255.595 179.999 258.522 172.304 260.467 166.159Z" fill="#FFF3A1"/>
<path d="M293.945 190.668C294.169 187.208 292.172 181.816 287.447 177.663C286.612 176.927 285.579 176.311 284.421 175.79C281.336 174.925 277.294 174.529 273.671 177.28C267.887 181.674 269.772 185.228 265.705 190.595C264.952 191.589 264.121 192.945 264.13 193.664C264.16 195.815 266.897 196.078 267.727 195.523C269.81 194.133 271.717 189.782 274.63 189.911C280.974 190.191 279.274 199.474 279.39 200.554C279.528 201.875 282.214 202.796 283.724 201.096C284.503 202.555 287.98 201.47 288.424 197.494C290.081 197.688 291.277 196.461 291.423 193.354C292.185 193.784 293.773 193.311 293.945 190.668Z" fill="#F2BDBA"/>
<path d="M194.104 168.556C194.104 168.556 203.336 173.97 214.456 180.365C219.845 173.32 226.739 164.399 229.524 161.149C234.946 154.819 235.609 146.461 231.719 141.172C229.816 138.589 227.402 136.395 222.728 136.257C221.811 136.524 221.041 136.829 220.49 137.178C210.816 143.28 202.677 157.117 194.104 168.556Z" fill="#FFF3A1"/>
<path d="M232.157 181.975C231.645 181.312 231.142 180.641 230.651 179.961C226.993 174.852 222.763 171.099 215.782 169.021C204.67 165.716 194.104 168.556 194.104 168.556C199.802 171.844 216.036 181.846 215.188 189.054C214.25 197.025 214.663 198.148 217.426 198.72C216.772 203.028 219.156 204.186 221.088 203.82C220.387 207.844 224.828 208.369 226.27 205.658C228.198 206.527 230.001 205.972 230.772 205.086C233.035 202.478 235.028 196.379 235.213 192.196C234.598 186.532 232.166 181.992 232.166 181.992L232.157 181.975Z" fill="#F2BDBA"/>
<path d="M239.018 189.235C236.457 187.088 234.202 184.617 232.157 181.975L232.166 181.992C232.166 181.992 234.602 186.537 235.213 192.196C237.619 193.509 239.883 194.752 242.426 196.108C242.938 193.534 241.23 191.09 239.018 189.235Z" fill="#EC8C92"/>
<path d="M234.804 191.736C234.757 190.117 234.288 188.185 234.279 188.163L235.114 187.957C235.136 188.039 235.609 190.001 235.661 191.71L234.804 191.736Z" fill="black"/>
<path d="M268.649 120.127C264.422 113.843 256.934 115.767 251.537 122.481C249.437 121.121 245.839 124.508 247.423 127.688C247.642 128.127 247.565 128.661 247.229 129.022C247.229 129.022 245.43 134.841 248.193 139.407C250.956 143.969 256.676 141.912 256.676 141.912C259.572 140.672 262.077 138.929 262.077 138.929C268.519 134.118 272.539 125.907 268.649 120.127Z" fill="#F2BDBA"/>
<path d="M228.078 204.289L227.281 203.967C229.192 199.254 229.046 194.563 229.042 194.516L229.902 194.486C229.911 194.684 230.062 199.409 228.078 204.289Z" fill="black"/>
<path d="M221.76 202.585L220.955 202.275C222.242 198.923 222.806 196.302 222.909 193.229L223.77 193.259C223.662 196.431 223.081 199.134 221.76 202.585Z" fill="black"/>
<path d="M217.68 197.761L216.888 197.421C217.998 194.834 218.136 192.157 218.119 190.789L218.98 190.776C218.997 192.213 218.855 195.028 217.68 197.761Z" fill="black"/>
<path d="M284.477 199.435L283.625 199.31C283.763 198.38 283.84 197.356 283.845 196.263C283.862 193.582 283.109 191.262 282.472 189.79L283.264 189.45C283.931 191 284.727 193.44 284.705 196.272C284.701 197.399 284.624 198.462 284.477 199.435Z" fill="black"/>
<path d="M288.187 195.708C288.101 191.279 286.702 187.832 286.689 187.798L287.485 187.471C287.546 187.617 288.957 191.103 289.048 195.691L288.187 195.708Z" fill="black"/>
<path d="M291.118 192.054C290.937 188.783 289.827 186.149 289.814 186.124L290.606 185.784C290.653 185.895 291.789 188.585 291.979 192.007L291.118 192.054Z" fill="black"/>
<path d="M268.648 120.127C264.422 113.843 256.934 115.767 251.537 122.481L252.776 125.45C253.005 125.997 253.719 126.13 254.132 125.704L257.368 122.326C258.036 121.629 259.215 121.956 259.413 122.898C259.8 124.732 260.755 127.223 263.11 128.984C265.653 130.886 268.313 130.137 269.875 127.826C270.49 125.115 270.198 122.429 268.648 120.127Z" fill="black"/>
<path d="M261.491 134.906C261.138 134.557 261.138 133.985 261.487 133.632L262.15 132.965C262.498 132.612 263.071 132.612 263.424 132.96C263.777 133.309 263.777 133.881 263.428 134.234L262.765 134.901C262.417 135.254 261.844 135.258 261.491 134.906Z" fill="black"/>
<path d="M256.086 132.517C255.733 132.168 255.733 131.596 256.082 131.243L256.744 130.576C257.093 130.223 257.665 130.223 258.018 130.572C258.371 130.92 258.371 131.493 258.023 131.846L257.36 132.513C257.011 132.866 256.439 132.866 256.086 132.517Z" fill="black"/>
<path d="M263.699 193.664C263.695 193.203 263.936 192.553 264.422 191.727C264.758 191.159 265.119 190.655 265.365 190.328C267.03 188.133 267.663 186.266 268.283 184.458C268.833 182.84 269.354 181.312 270.551 179.728L271.239 180.249C270.124 181.725 269.625 183.188 269.1 184.738C268.493 186.524 267.805 188.542 266.053 190.853C265.821 191.159 265.481 191.637 265.167 192.166C264.616 193.1 264.564 193.517 264.564 193.655L263.699 193.664Z" fill="black"/>
<path d="M278.947 195.166C278.667 193.147 277.953 191.744 276.83 191C276.223 190.599 275.478 190.376 274.613 190.337C273.223 190.277 272.027 191.447 270.938 192.717L270.284 192.157C271.515 190.72 272.9 189.394 274.648 189.476C275.672 189.523 276.563 189.79 277.303 190.281C278.642 191.167 279.481 192.773 279.799 195.045L278.947 195.166Z" fill="black"/>
<path d="M223.675 169.12L222.995 168.59C225.9 164.872 227.987 162.273 229.192 160.865C234.331 154.87 235.243 146.693 231.37 141.426L232.063 140.913C236.173 146.504 235.243 155.128 229.846 161.425C228.65 162.823 226.576 165.414 223.675 169.12Z" fill="black"/>
<path d="M256.766 178.058L255.957 177.757C257.674 173.152 259.051 169.206 260.054 166.03C260.622 164.235 261.22 162.29 261.771 160.233L262.602 160.456C262.051 162.531 261.444 164.485 260.876 166.288C259.869 169.477 258.483 173.436 256.766 178.058Z" fill="black"/>
<path d="M256.073 139.308C255.208 138.538 253.521 137.845 253.504 137.841L253.826 137.044C253.9 137.075 255.664 137.798 256.645 138.667L256.073 139.308Z" fill="black"/>
<path d="M248.193 139.403C245.43 134.837 247.229 129.018 247.229 129.018C244.888 131.549 241.914 134.368 241.914 134.368C238.075 141.223 241.535 153.48 251.119 154.091C259.568 154.629 258.862 145.48 256.675 141.903C256.675 141.908 250.956 143.965 248.193 139.403Z" fill="#EC8C92"/>
<path d="M250.401 142.157C246.639 140.117 246.347 135.422 246.334 135.224L247.194 135.177C247.199 135.22 247.479 139.592 250.814 141.4L250.401 142.157Z" fill="black"/>
</svg>
