<svg width="445" height="333" viewBox="0 0 445 333" fill="none" xmlns="http://www.w3.org/2000/svg">
<g clip-path="url(#clip0_8_2)">
<path d="M427.585 278.575C394.071 332.211 323.424 348.52 269.788 315.006L104.371 211.633C50.7347 178.134 34.4202 107.487 67.9345 53.8511C101.449 0.214856 172.101 -16.0996 225.737 17.3942L391.149 120.767C444.785 154.292 461.1 224.938 427.585 278.575Z" fill="#274D76"/>
<path d="M432.017 243.044C428.552 246.826 418.901 236.545 411.23 239.416C403.559 242.287 404.173 223.695 411.23 226.873C418.287 230.051 427.314 219.007 432.017 222.938C436.72 226.868 426.7 234.278 432.017 243.044Z" fill="#EC8C92"/>
<path d="M373.964 228.639C373.964 228.639 381.845 212.8 386.395 214.12C388.319 214.678 386.441 216.597 388.401 217.012C391.471 217.651 393.324 209.52 398.185 210.19C402.008 210.702 398.748 216.29 401.839 216.991C403.753 217.426 407.745 214.591 408.855 216.208C410.467 218.562 404.06 225.875 404.06 225.875L373.964 228.639Z" fill="#EC8C92"/>
<path d="M395.274 251.227C383.288 251.227 364.82 239.784 364.886 236.023C364.922 233.976 367.184 231.658 370.116 229.478C376.835 224.524 384.972 221.87 393.319 221.909H402.53C404.168 221.908 405.79 222.229 407.304 222.855C408.818 223.481 410.193 224.399 411.352 225.557C412.51 226.714 413.43 228.089 414.057 229.602C414.684 231.115 415.007 232.737 415.007 234.375C415.007 245.122 405.995 251.227 395.274 251.227Z" fill="#93B4F6"/>
<path d="M387.628 247.21C387.628 247.21 406.158 253.044 403.958 255.372C401.757 257.7 384.649 255.894 387.628 247.21Z" fill="#EC8C92"/>
<path d="M380.556 238.413C379.736 238.414 378.934 238.172 378.252 237.717C377.569 237.262 377.037 236.615 376.723 235.858C376.408 235.1 376.325 234.267 376.485 233.462C376.644 232.658 377.038 231.919 377.618 231.339C378.197 230.758 378.936 230.363 379.74 230.203C380.544 230.042 381.378 230.124 382.136 230.438C382.894 230.751 383.541 231.283 383.997 231.964C384.453 232.646 384.696 233.448 384.696 234.268C384.696 235.366 384.26 236.42 383.484 237.197C382.707 237.974 381.654 238.412 380.556 238.413V238.413ZM380.556 231.146C379.938 231.145 379.334 231.327 378.82 231.67C378.306 232.012 377.905 232.499 377.668 233.07C377.431 233.64 377.369 234.268 377.488 234.874C377.608 235.48 377.905 236.036 378.342 236.473C378.778 236.91 379.334 237.208 379.94 237.329C380.546 237.45 381.173 237.388 381.744 237.152C382.315 236.916 382.803 236.516 383.146 236.003C383.489 235.489 383.672 234.885 383.672 234.268C383.671 233.441 383.342 232.649 382.758 232.064C382.174 231.479 381.383 231.149 380.556 231.146V231.146Z" fill="white"/>
<path d="M389.409 246.447C389.312 246.447 389.218 246.419 389.137 246.367C389.056 246.315 388.991 246.241 388.949 246.154C388.908 246.067 388.893 245.97 388.904 245.874C388.916 245.778 388.954 245.688 389.015 245.613C390.775 243.465 391.845 240.835 392.085 238.068C392.325 235.301 391.724 232.527 390.361 230.107C390.327 230.049 390.305 229.984 390.297 229.917C390.288 229.85 390.293 229.782 390.31 229.717C390.328 229.652 390.358 229.591 390.399 229.538C390.44 229.484 390.492 229.44 390.55 229.406C390.608 229.372 390.673 229.351 390.74 229.342C390.807 229.333 390.875 229.338 390.94 229.356C391.005 229.373 391.066 229.403 391.119 229.444C391.173 229.486 391.218 229.537 391.251 229.595C392.716 232.194 393.363 235.175 393.105 238.147C392.848 241.119 391.698 243.945 389.808 246.253C389.76 246.313 389.7 246.362 389.631 246.396C389.561 246.429 389.486 246.447 389.409 246.447V246.447Z" fill="black"/>
<path d="M384.179 247.113C384.105 247.112 384.031 247.095 383.964 247.063C383.897 247.032 383.838 246.985 383.79 246.928C376.738 238.479 365.045 237.093 364.927 237.077C364.86 237.07 364.795 237.049 364.736 237.017C364.676 236.984 364.624 236.94 364.582 236.888C364.496 236.781 364.457 236.645 364.472 236.509C364.487 236.373 364.555 236.249 364.661 236.164C364.768 236.078 364.904 236.039 365.04 236.054C365.551 236.11 377.26 237.507 384.573 246.289C384.658 246.393 384.699 246.526 384.687 246.661C384.675 246.795 384.61 246.918 384.507 247.005C384.413 247.078 384.297 247.116 384.179 247.113Z" fill="black"/>
<path d="M210.144 300.186C207.723 302.826 200.973 295.641 195.61 297.627C190.247 299.613 190.677 286.635 195.61 288.856C200.543 291.077 206.869 283.359 210.144 286.108C213.419 288.856 206.439 294.055 210.144 300.186Z" fill="#EC8C92"/>
<path d="M169.573 290.115C169.573 290.115 175.079 279.041 178.272 279.962C179.613 280.356 178.303 281.691 179.669 281.983C181.803 282.428 183.113 276.743 186.511 277.214C189.183 277.587 186.905 281.476 189.07 281.968C190.406 282.275 193.195 280.289 193.973 281.42C195.099 283.068 190.621 288.18 190.621 288.18L169.573 290.115Z" fill="#EC8C92"/>
<path d="M179.127 303.098C179.127 303.098 192.084 307.192 190.544 308.804C189.004 310.416 177.059 309.167 179.127 303.098Z" fill="#EC8C92"/>
<path d="M184.469 305.902C176.092 305.902 163.181 297.908 163.227 295.278C163.227 293.855 164.834 292.208 166.881 290.672C171.578 287.209 177.267 285.353 183.103 285.381H189.551C191.858 285.381 194.071 286.297 195.703 287.929C197.334 289.56 198.251 291.773 198.251 294.081V294.081C198.266 301.619 191.967 305.902 184.469 305.902Z" fill="#F2BDBA"/>
<path d="M174.178 296.655C173.571 296.655 172.977 296.475 172.472 296.137C171.967 295.8 171.574 295.32 171.342 294.759C171.109 294.198 171.048 293.581 171.167 292.985C171.285 292.39 171.578 291.842 172.007 291.413C172.437 290.984 172.984 290.691 173.579 290.573C174.175 290.454 174.792 290.515 175.353 290.747C175.914 290.98 176.394 291.373 176.731 291.878C177.069 292.383 177.249 292.977 177.249 293.584C177.249 294.399 176.925 295.18 176.349 295.755C175.774 296.331 174.993 296.655 174.178 296.655V296.655ZM174.178 291.573C173.773 291.573 173.378 291.693 173.041 291.918C172.704 292.143 172.442 292.463 172.287 292.837C172.132 293.211 172.092 293.622 172.171 294.019C172.25 294.416 172.445 294.781 172.731 295.067C173.017 295.354 173.382 295.549 173.779 295.628C174.176 295.707 174.588 295.666 174.962 295.511C175.336 295.356 175.655 295.094 175.88 294.757C176.105 294.421 176.225 294.025 176.225 293.62C176.225 293.351 176.172 293.085 176.069 292.837C175.967 292.588 175.816 292.363 175.626 292.173C175.436 291.983 175.21 291.832 174.962 291.729C174.713 291.626 174.447 291.573 174.178 291.573V291.573Z" fill="white"/>
<path d="M180.37 302.719C180.252 302.718 180.139 302.676 180.048 302.601C179.996 302.559 179.952 302.506 179.921 302.447C179.889 302.387 179.869 302.322 179.862 302.255C179.856 302.188 179.862 302.121 179.882 302.056C179.901 301.992 179.933 301.932 179.976 301.88C181.185 300.401 181.92 298.593 182.085 296.69C182.25 294.788 181.838 292.88 180.903 291.215C180.869 291.156 180.847 291.092 180.838 291.025C180.83 290.958 180.834 290.89 180.852 290.825C180.87 290.76 180.9 290.699 180.941 290.646C180.982 290.592 181.033 290.547 181.092 290.514C181.15 290.48 181.215 290.458 181.282 290.45C181.349 290.441 181.417 290.446 181.482 290.463C181.547 290.481 181.608 290.511 181.661 290.552C181.715 290.593 181.759 290.645 181.793 290.703C182.83 292.547 183.287 294.661 183.105 296.769C182.922 298.877 182.108 300.881 180.769 302.519C180.722 302.581 180.662 302.63 180.593 302.665C180.524 302.7 180.448 302.718 180.37 302.719V302.719Z" fill="black"/>
<path d="M176.717 303.18C176.641 303.18 176.567 303.163 176.499 303.131C176.431 303.1 176.371 303.053 176.323 302.995C171.43 297.136 163.319 296.174 163.237 296.163C163.103 296.148 162.98 296.08 162.896 295.975C162.812 295.869 162.772 295.735 162.787 295.601C162.794 295.534 162.814 295.469 162.846 295.41C162.878 295.351 162.922 295.298 162.974 295.256C163.026 295.214 163.086 295.182 163.151 295.163C163.215 295.144 163.283 295.138 163.35 295.145C163.703 295.186 171.957 296.169 177.111 302.34C177.154 302.392 177.186 302.452 177.206 302.516C177.226 302.58 177.233 302.648 177.227 302.715C177.221 302.782 177.202 302.847 177.17 302.907C177.139 302.966 177.096 303.019 177.044 303.062C176.952 303.138 176.836 303.18 176.717 303.18V303.18Z" fill="black"/>
<path d="M0.788065 184.654C2.88623 187.622 8.73039 179.536 13.3771 181.803C18.0237 184.07 17.6501 169.455 13.3771 171.952C9.10396 174.45 3.65385 165.775 0.788065 168.882C-2.07772 171.988 4.00696 177.766 0.788065 184.654Z" fill="#274D76"/>
<path d="M40.7965 171.164C40.7965 171.164 34.9932 156.037 31.6362 157.296C30.2238 157.808 31.6055 159.66 30.1623 160.054C27.9158 160.668 26.5341 152.89 22.9518 153.545C20.1424 154.056 22.5373 159.368 20.2601 160.039C18.8527 160.453 15.9102 157.741 15.0965 159.292C13.9093 161.538 18.6225 168.503 18.6225 168.503L40.7965 171.164Z" fill="#274D76"/>
<path d="M25.1011 192.739C33.9287 192.739 47.531 181.814 47.4849 178.221C47.4849 176.282 45.7911 174.05 43.6315 171.963C38.7034 167.203 32.6801 164.737 26.5391 164.737H19.7738C14.7024 164.737 10.5624 170.069 10.5624 176.645C10.5624 186.885 17.2151 192.739 25.1011 192.739Z" fill="#93B4F6"/>
<path d="M30.7304 188.906C30.7304 188.906 17.0821 194.474 18.7044 196.705C20.3266 198.937 32.9105 197.197 30.7304 188.906Z" fill="#274D76"/>
<path d="M35.9451 180.043C34.1898 180.043 32.7569 178.257 32.7569 176.061C32.7569 173.866 34.1898 172.08 35.9451 172.08C37.7004 172.08 39.1333 173.866 39.1333 176.061C39.1333 178.257 37.685 180.043 35.9451 180.043ZM35.9451 173.104C34.7527 173.104 33.7804 174.429 33.7804 176.061C33.7804 177.694 34.7527 179.019 35.9451 179.019C37.1374 179.019 38.1098 177.689 38.1098 176.061C38.1098 174.434 37.1374 173.104 35.9451 173.104V173.104Z" fill="white"/>
<path d="M29.4203 188.2C29.3334 188.2 29.2478 188.178 29.1717 188.136C29.0956 188.094 29.0315 188.033 28.9854 187.96C27.3495 185.272 26.497 182.181 26.5239 179.035C26.5127 176.659 26.9881 174.306 27.9209 172.121C27.9454 172.056 27.9828 171.997 28.0309 171.947C28.0791 171.897 28.1369 171.857 28.2009 171.83C28.2649 171.803 28.3337 171.789 28.4032 171.789C28.4727 171.79 28.5413 171.804 28.605 171.832C28.6686 171.86 28.7259 171.901 28.7734 171.951C28.8209 172.002 28.8576 172.062 28.8812 172.127C28.9049 172.192 28.9149 172.262 28.9108 172.331C28.9068 172.401 28.8886 172.468 28.8574 172.531C27.9815 174.587 27.5357 176.8 27.5474 179.035C27.5205 181.987 28.318 184.888 29.8502 187.412C29.8862 187.469 29.9106 187.532 29.9221 187.598C29.9336 187.665 29.9319 187.733 29.9172 187.798C29.9025 187.864 29.8749 187.926 29.8362 187.981C29.7975 188.036 29.7484 188.082 29.6916 188.118C29.6107 188.171 29.5167 188.199 29.4203 188.2Z" fill="black"/>
<path d="M33.2688 188.83C33.1711 188.827 33.0758 188.799 32.9924 188.748C32.9354 188.711 32.886 188.664 32.8474 188.609C32.8087 188.553 32.7815 188.49 32.7672 188.424C32.7529 188.358 32.7519 188.29 32.7642 188.223C32.7765 188.157 32.8019 188.093 32.8389 188.037C34.4729 185.512 36.5987 183.342 39.0895 181.656C41.5804 179.971 44.3852 178.804 47.3367 178.226C47.4724 178.207 47.6104 178.242 47.7203 178.324C47.8302 178.406 47.903 178.528 47.9227 178.664C47.9423 178.8 47.9073 178.938 47.8252 179.047C47.7432 179.157 47.6208 179.23 47.4851 179.25C44.6853 179.827 42.0266 180.95 39.6611 182.555C37.2955 184.161 35.2695 186.216 33.6986 188.605C33.6512 188.675 33.5871 188.732 33.5121 188.771C33.4371 188.811 33.3535 188.831 33.2688 188.83Z" fill="black"/>
<path d="M138.034 266.549C137.497 266.205 136.899 265.97 136.272 265.858C135.645 265.746 135.002 265.758 134.38 265.895C133.758 266.031 133.168 266.289 132.646 266.653C132.123 267.017 131.678 267.481 131.335 268.017L128.653 272.244C128.217 272.922 127.563 273.43 126.799 273.685C126.035 273.94 125.207 273.926 124.452 273.647L123.541 273.304H123.5C122.328 272.869 121.342 272.046 120.704 270.971C120.067 269.896 119.818 268.635 120 267.398L120.389 264.727C120.499 264.028 120.356 263.313 119.987 262.71C119.617 262.107 119.045 261.655 118.372 261.436C117.971 261.314 117.549 261.28 117.134 261.336C116.718 261.392 116.32 261.538 115.966 261.762C115.612 261.987 115.311 262.285 115.083 262.637C114.856 262.989 114.707 263.386 114.647 263.801L114.242 266.564C113.653 270.367 111.916 273.899 109.263 276.686C108.877 277.1 108.519 277.537 108.188 277.996V277.996C107.878 278.429 107.437 278.75 106.93 278.912C106.423 279.074 105.878 279.069 105.374 278.897C104.87 278.724 104.436 278.395 104.134 277.956C103.833 277.517 103.681 276.993 103.7 276.461L103.813 272.582C103.834 272.046 103.974 271.522 104.222 271.047L109.012 261.984C110.021 260.081 110.548 257.961 110.548 255.807V244.682C110.548 244.503 110.548 244.329 110.548 244.17C110.452 242.303 110.836 240.443 111.665 238.767C112.494 237.092 113.739 235.657 115.281 234.6L118.556 232.395C119.15 232.007 119.584 231.42 119.781 230.739C119.979 230.058 119.925 229.329 119.631 228.685C119.452 228.307 119.193 227.972 118.873 227.703C118.552 227.434 118.178 227.238 117.774 227.128C117.371 227.017 116.948 226.996 116.536 227.064C116.123 227.132 115.73 227.289 115.384 227.523L109.002 231.816C108.609 232.077 108.168 232.257 107.704 232.347C107.241 232.436 106.765 232.434 106.302 232.338C105.84 232.243 105.401 232.058 105.011 231.793C104.621 231.527 104.287 231.188 104.028 230.793C104.028 230.793 99.2022 225.773 97.7795 223.941C96.0294 221.684 93.8596 219.734 91.5925 221.607C89.6735 223.188 91.1882 226.612 92.4727 228.741C94.5504 232.175 100.282 242.763 100.282 242.763C100.657 243.336 100.858 244.006 100.86 244.692V255.782C100.859 256.356 100.719 256.921 100.451 257.429L95.6558 266.498C95.5588 266.693 95.4019 266.852 95.2081 266.952C95.0143 267.052 94.7937 267.087 94.5783 267.053C94.363 267.019 94.1642 266.917 94.011 266.761C93.8578 266.606 93.7581 266.406 93.7265 266.19L92.0889 256.109C91.9115 255.009 91.5951 253.936 91.1473 252.916C90.6597 251.823 90.552 250.598 90.8414 249.437C91.1307 248.276 91.8005 247.245 92.744 246.509L93.3632 246.028C93.7151 245.755 94 245.405 94.196 245.005C94.392 244.605 94.494 244.165 94.4941 243.72V236.77C94.5048 236.017 94.23 235.287 93.725 234.728C93.22 234.169 92.5222 233.822 91.7716 233.756C91.377 233.734 90.9821 233.793 90.611 233.929C90.2398 234.066 89.9003 234.276 89.613 234.547C89.3257 234.819 89.0967 235.146 88.94 235.509C88.7832 235.871 88.702 236.262 88.7012 236.658V242.287C88.5048 242.439 88.2763 242.545 88.0329 242.597C87.7895 242.648 87.5377 242.643 87.2965 242.582C87.0553 242.521 86.8311 242.407 86.6409 242.246C86.4507 242.086 86.2994 241.885 86.1987 241.657L84.9193 238.761C84.7567 238.4 84.658 238.014 84.6276 237.62L83.9828 229.529C83.7256 226.219 82.2245 223.129 79.7814 220.88C79.7814 220.88 74.6639 216.034 72.8626 214.494C69.0756 211.214 64.5467 215.006 67.3971 219.314C68.8402 221.489 73.2054 228.014 73.2054 228.014C73.854 228.617 74.2537 229.44 74.3262 230.322L74.971 238.403C75.0897 239.886 75.4564 241.339 76.0559 242.701V242.701C76.0558 242.831 76.0258 242.96 75.968 243.076C75.9102 243.193 75.8263 243.294 75.7228 243.373C75.6192 243.452 75.4989 243.506 75.3711 243.53C75.2434 243.555 75.1117 243.55 74.9863 243.515L72.1512 242.722C71.7692 242.614 71.3693 242.587 70.9761 242.64C70.5829 242.693 70.2048 242.827 69.8652 243.032C69.5256 243.237 69.2317 243.51 69.0018 243.833C68.7718 244.157 68.6106 244.524 68.5281 244.912C68.3877 245.653 68.5329 246.419 68.9344 247.057C69.336 247.695 69.9642 248.157 70.6928 248.351L74.6179 249.446C76.196 249.89 77.6566 250.677 78.8952 251.751C80.1337 252.825 81.1196 254.159 81.7823 255.659L82.2941 256.805C82.4147 257.08 82.5007 257.369 82.5499 257.665L82.6165 258.084C82.6631 258.365 82.6207 258.653 82.4953 258.908C82.3698 259.164 82.1675 259.373 81.9168 259.508C81.6661 259.642 81.3796 259.694 81.0976 259.658C80.8156 259.621 80.5521 259.497 80.3443 259.302L80.3187 259.277L65.913 248.878C65.2407 248.267 64.8347 247.416 64.7821 246.509L64.3778 237.205C64.1219 233.162 55.4018 229.642 53.3292 228.705C47.0091 225.855 45.653 230.778 47.8893 232.287L56.2205 237.957C56.6657 238.259 57.0357 238.66 57.3019 239.127C57.568 239.595 57.7233 240.117 57.7558 240.654L58.1601 247.118C58.2116 247.906 58.3314 248.689 58.5183 249.456H58.4722L48.4318 248.192C47.4955 248.078 46.6197 247.669 45.9302 247.025C45.2406 246.382 44.7727 245.536 44.5937 244.61C44.1536 242.394 43.826 241.069 42.9714 240.368C42.2806 239.8 38.8774 240.04 38.4783 245.332C38.4169 246.186 37.3729 248.305 35.157 248.254C34.1335 248.254 31.8819 249.41 31.6413 251.836C31.5522 252.782 31.8129 253.728 32.3739 254.494C32.935 255.261 33.7577 255.795 34.6862 255.996C34.6862 255.996 38.4936 256.744 40.5099 257.02C41.1769 257.1 41.8007 257.392 42.2897 257.852C42.7788 258.313 43.1074 258.918 43.2273 259.579C43.5804 261.575 44.1382 264.312 44.7625 265.423C45.1566 266.16 46.1033 266.334 46.8761 266.334C47.6185 266.335 48.3331 266.051 48.8719 265.541C49.4808 264.962 50.3048 263.094 50.9598 261.447C51.1056 261.069 51.3289 260.727 51.6152 260.441C51.9016 260.156 52.2447 259.934 52.6223 259.789C52.9999 259.644 53.4037 259.58 53.8075 259.601C54.2114 259.623 54.6063 259.728 54.9668 259.911C58.2727 261.61 61.2971 263.693 62.9091 267.137C63.294 267.961 63.3435 268.903 63.0473 269.763L61.6144 273.954V273.995C61.2316 275.122 60.4703 276.081 59.4598 276.71C58.4494 277.339 57.2523 277.598 56.0721 277.444L51.8144 276.886C51.4204 276.835 51.0202 276.865 50.6383 276.974C50.2564 277.084 49.901 277.271 49.5941 277.523C49.2872 277.775 49.0352 278.088 48.8538 278.441C48.6723 278.794 48.5653 279.181 48.5392 279.578C48.511 280.327 48.7661 281.059 49.2536 281.628C49.7411 282.197 50.4253 282.561 51.1696 282.648L55.1663 283.16C58.2368 283.564 62.5509 285.719 64.8128 287.863C66.7508 289.601 69.1435 290.751 71.7111 291.179C72.2978 291.286 72.8472 291.542 73.3069 291.921C73.7665 292.301 74.121 292.793 74.3364 293.349L78.8244 304.761L84.3923 304.623C88.7779 303.789 88.5374 296.107 89.2027 294.291C90.2261 291.548 94.1871 288.411 95.5842 287.582C101.336 284.163 112.472 288.605 112.472 288.605L116.1 283.544C116.55 282.914 117.195 282.451 117.936 282.226C118.676 282.001 119.47 282.027 120.194 282.3L121.11 282.643C123.939 283.688 127.04 283.738 129.902 282.784C132.763 281.831 135.214 279.931 136.851 277.398L139.523 273.268C139.869 272.73 140.105 272.128 140.217 271.499C140.33 270.869 140.316 270.223 140.178 269.598C140.04 268.973 139.779 268.382 139.411 267.859C139.043 267.336 138.575 266.89 138.034 266.549V266.549Z" fill="#EC8C92"/>
<path d="M143.438 331.812L142.082 331.095C142.306 330.613 142.419 330.087 142.413 329.556C142.406 329.025 142.281 328.501 142.046 328.025C140.812 325.067 136.816 322.334 131.074 320.538L130.936 320.492C128.377 319.694 126.576 318.957 126.064 317.969L122.691 311.475C121.458 309.095 118.597 307.56 115.43 307.56C114.655 307.591 113.89 307.387 113.232 306.976C112.575 306.566 112.057 305.967 111.745 305.257C111.536 304.713 111.208 304.222 110.786 303.821C110.364 303.419 109.858 303.116 109.304 302.934C108.408 302.653 107.462 302.567 106.53 302.682C105.598 302.797 104.701 303.109 103.9 303.599C103.335 303.948 102.79 304.329 102.268 304.74C100.594 305.994 98.5063 307.56 95.6149 307.56L94.4634 307.621C91.2599 307.621 89.1925 308.937 87.7186 311.884L84.336 318.67C82.5244 322.293 83.3534 326.392 86.4853 329.366L85.4311 330.481C81.7875 327.022 80.8254 322.232 82.9594 317.984L86.3471 311.199C88.0615 307.76 90.7021 306.081 94.4225 306.081L95.5688 306.02C97.9945 306.02 99.7754 304.684 101.346 303.507C101.918 303.061 102.514 302.647 103.132 302.269C104.131 301.668 105.246 301.289 106.404 301.158C107.562 301.026 108.734 301.145 109.841 301.506C110.605 301.762 111.303 302.184 111.884 302.741C112.465 303.299 112.916 303.978 113.204 304.73C113.409 305.145 113.731 305.49 114.13 305.723C114.529 305.956 114.989 306.066 115.45 306.04C119.191 306.04 122.579 307.903 124.073 310.784L127.42 317.278C127.538 317.513 128.218 318.051 131.391 319.044L131.529 319.09C139.983 321.735 142.634 325.466 143.458 327.452C143.778 328.134 143.942 328.88 143.939 329.634C143.935 330.388 143.764 331.132 143.438 331.812V331.812Z" fill="#93B4F6"/>
<path d="M79.8685 303.676C79.3567 302.176 79.5461 300.503 80.4467 298.691C80.7276 297.466 80.7779 296.199 80.5951 294.956L76.0662 291.261C75.0384 290.427 74.2448 289.341 73.7633 288.109L71.4349 282.142C71.3837 282.014 71.3376 281.886 71.2967 281.753C70.9443 280.782 70.3394 279.922 69.5442 279.263C68.749 278.603 67.7924 278.168 66.7729 278.002L64.5672 277.577C64.0773 277.487 63.6339 277.229 63.3128 276.848C62.9917 276.468 62.8128 275.987 62.8068 275.489C62.8258 275.176 62.9114 274.871 63.0579 274.594C63.2044 274.316 63.4084 274.074 63.6563 273.882C63.9158 273.676 64.2163 273.529 64.5377 273.449C64.859 273.37 65.1937 273.36 65.5191 273.421L70.0941 274.302C70.5588 274.392 71.0406 274.304 71.4429 274.054C71.8452 273.805 72.1385 273.412 72.2639 272.956L72.2895 272.879C72.2895 272.843 74.0192 269.102 74.4439 267.833C74.7408 266.938 75.6466 264.22 78.0262 264.916C79.6484 265.387 79.1622 267.475 78.8091 268.979C78.758 269.199 78.7068 269.414 78.6659 269.609C78.2821 271.461 77.233 275.238 76.798 276.773C76.7083 277.076 76.7083 277.397 76.798 277.7C77.6664 280.415 78.7656 283.052 80.0834 285.581V285.632C80.1802 285.873 80.337 286.086 80.5388 286.251L85.206 290.053C85.2452 290.08 85.2915 290.094 85.339 290.094C85.3865 290.094 85.4329 290.08 85.4721 290.053C85.509 290.034 85.5392 290.005 85.5585 289.968C85.5777 289.931 85.5851 289.89 85.5796 289.848L84.4128 284.061C84.2778 283.387 84.233 282.699 84.2797 282.014C84.3144 281.415 84.1377 280.823 83.7804 280.341C83.4231 279.86 82.9079 279.519 82.3248 279.378L81.8694 279.26C81.551 279.18 81.2562 279.025 81.0089 278.809C80.7617 278.593 80.569 278.322 80.4467 278.017L79.0241 274.291C78.8423 273.821 78.8308 273.301 78.9915 272.823C79.1523 272.344 79.4751 271.937 79.9043 271.671C80.0934 271.533 80.3116 271.44 80.5422 271.399C80.7729 271.358 81.0098 271.371 81.2348 271.436C81.895 271.656 82.2583 272.372 82.4426 272.894L83.5735 275.791C83.7946 275.81 84.0169 275.771 84.2183 275.678C84.6124 275.52 84.7864 275.31 84.7966 275.248L84.9552 273.027C84.9649 272.855 84.9459 272.682 84.8989 272.516L84.2541 270.254C83.6882 268.289 83.9122 266.181 84.8785 264.379C85.1167 263.719 85.4201 263.085 85.7843 262.485C86.7361 260.822 88.3072 260.525 89.3665 260.95C90.2723 261.313 91.1678 262.373 90.7175 264.159C90.6612 264.379 90.5793 264.614 90.4975 264.87C90.0266 266.247 89.3204 268.335 91.6642 272.981C91.6642 273.032 91.7001 273.043 91.7205 273.048C91.7381 273.056 91.7573 273.061 91.7768 273.061C91.7963 273.061 91.8156 273.056 91.8331 273.048L93.3018 271.983C93.5738 271.784 93.8862 271.647 94.2168 271.582C94.5475 271.516 94.8884 271.524 95.2158 271.605C95.5131 271.675 95.7911 271.81 96.0293 272.001C96.2676 272.193 96.4599 272.435 96.5924 272.71C96.7852 273.167 96.8136 273.676 96.6727 274.151C96.5317 274.626 96.2302 275.037 95.8196 275.315L93.7726 276.789C93.016 277.321 92.3855 278.013 91.9257 278.816C91.4658 279.619 91.1879 280.513 91.1116 281.435L91.0604 282.162C91.0399 282.298 91.0399 282.436 91.0604 282.571L91.1064 282.812C91.1648 283.041 91.2804 283.251 91.4424 283.423C91.6045 283.595 91.8076 283.723 92.0327 283.795C93.4093 284.25 95.922 283.226 98.931 280.98C99.2159 280.772 99.5497 280.64 99.9002 280.599C100.251 280.558 100.606 280.608 100.931 280.744C101.257 280.881 101.541 281.099 101.758 281.378C101.974 281.657 102.114 281.987 102.165 282.336C102.263 283.093 102.334 283.958 102.38 284.895L101.546 284.936C101.5 284.02 101.433 283.18 101.336 282.444C101.311 282.238 101.232 282.042 101.107 281.877C100.982 281.712 100.816 281.582 100.625 281.502C100.431 281.419 100.218 281.389 100.009 281.415C99.7992 281.441 99.6004 281.522 99.4325 281.65C96.1522 284.096 93.4297 285.14 91.7563 284.583C91.3994 284.465 91.0779 284.259 90.8213 283.985C90.5646 283.71 90.3811 283.376 90.2876 283.012L90.2313 282.74C90.1897 282.532 90.176 282.318 90.1904 282.106L90.2416 281.374C90.3282 280.33 90.6426 279.319 91.1624 278.41C91.6823 277.501 92.3951 276.717 93.2507 276.113L95.2976 274.639C95.5566 274.474 95.7495 274.224 95.8429 273.931C95.9364 273.638 95.9245 273.322 95.8094 273.038C95.729 272.871 95.6123 272.725 95.468 272.61C95.3236 272.495 95.1552 272.414 94.9752 272.372C94.7658 272.322 94.5478 272.317 94.3365 272.36C94.1253 272.402 93.9258 272.49 93.7522 272.618L92.2834 273.682C92.1649 273.769 92.0279 273.827 91.8832 273.852C91.7385 273.877 91.59 273.868 91.4493 273.826C91.3196 273.79 91.1996 273.726 91.0985 273.637C90.9975 273.548 90.9179 273.438 90.8659 273.314C88.3839 268.391 89.1567 266.109 89.6684 264.614C89.7503 264.384 89.8219 264.174 89.8731 263.969C90.1904 262.705 89.6428 261.989 89.0185 261.738C88.2867 261.441 87.1762 261.687 86.4598 262.915C86.122 263.471 85.8409 264.059 85.6205 264.671L85.5898 264.752C84.7076 266.369 84.4998 268.269 85.0115 270.039L85.6359 272.27C85.7136 272.537 85.743 272.816 85.7228 273.094L85.5642 275.31C85.5335 275.76 85.1292 276.185 84.4844 276.451C84.2439 276.553 83.4097 276.845 82.9031 276.4L82.8264 276.333L81.6033 273.201C81.3321 272.5 81.0915 272.285 80.9073 272.229C80.798 272.21 80.6857 272.214 80.5781 272.241C80.4704 272.269 80.3698 272.318 80.283 272.388C80.019 272.55 79.8202 272.799 79.7211 273.093C79.622 273.387 79.6289 273.706 79.7405 273.995L81.1939 277.725C81.2674 277.907 81.3833 278.069 81.532 278.197C81.6806 278.325 81.8577 278.416 82.0485 278.462L82.504 278.58C83.2749 278.768 83.9547 279.222 84.423 279.862C84.8912 280.503 85.1178 281.289 85.0627 282.08C85.018 282.697 85.0559 283.316 85.1753 283.922L86.3472 289.71C86.3869 289.922 86.3588 290.141 86.2669 290.336C86.175 290.53 86.024 290.691 85.8354 290.795C85.6477 290.911 85.4284 290.966 85.2082 290.951C84.988 290.936 84.7779 290.853 84.6072 290.713L79.9504 286.916C79.6407 286.667 79.3995 286.343 79.2492 285.975C77.9078 283.406 76.7914 280.727 75.9127 277.966C75.7743 277.509 75.7743 277.021 75.9127 276.564C76.3425 275.028 77.3916 271.282 77.7703 269.455C77.8112 269.251 77.8624 269.036 77.9136 268.805C78.2769 267.27 78.5072 265.965 77.714 265.735C76.583 265.407 75.8154 266.119 75.1553 268.115C74.7356 269.373 73.1748 272.807 72.9855 273.232C72.8003 273.887 72.3765 274.448 71.7975 274.805C71.2186 275.162 70.5268 275.29 69.8587 275.161L65.2837 274.281C65.0752 274.244 64.8613 274.251 64.6558 274.302C64.4503 274.353 64.258 274.447 64.0913 274.578C63.8866 274.72 63.7301 274.92 63.6425 275.153C63.5549 275.386 63.5404 275.64 63.6011 275.882C63.6617 276.123 63.7945 276.34 63.9817 276.504C64.169 276.668 64.4018 276.771 64.6491 276.799L66.8496 277.224C68.0161 277.419 69.1094 277.922 70.017 278.68C70.9246 279.438 71.6136 280.425 72.0132 281.538C72.049 281.65 72.0899 281.768 72.136 281.881L74.5309 287.807C74.9617 288.903 75.6665 289.87 76.5779 290.616L81.3628 294.511V294.669C81.5983 296.093 81.5461 297.549 81.2092 298.952L81.1785 299.029C80.37 300.641 80.1806 302.1 80.6258 303.405L79.8685 303.676Z" fill="white"/>
<path d="M62.6583 327.682C62.1875 322.109 66.2047 311.536 70.616 306.736C72.2638 304.94 73.8707 304.029 75.3855 304.029H83.2306C84.3139 304.021 85.3505 303.587 86.1166 302.821C86.8826 302.055 87.3165 301.018 87.3245 299.935C87.3242 297.631 87.8672 295.36 88.9094 293.306C89.9517 291.251 91.4639 289.472 93.3231 288.112C95.1823 286.752 97.3362 285.849 99.6097 285.478C101.883 285.107 104.212 285.277 106.408 285.975L112.262 287.837C115.135 288.73 118.1 289.295 121.1 289.521C145.566 291.507 155.899 304.49 158.135 311.848L159.409 316.014L157.941 316.464L156.666 312.294C154.537 305.308 144.62 292.97 120.972 291.051C117.86 290.806 114.785 290.21 111.807 289.275L105.952 287.418C103.987 286.793 101.902 286.641 99.867 286.973C97.832 287.306 95.904 288.114 94.2397 289.331C92.5755 290.549 91.2219 292.142 90.2889 293.981C89.3558 295.819 88.8698 297.852 88.87 299.915C88.862 301.405 88.2663 302.832 87.2124 303.886C86.1584 304.94 84.7313 305.536 83.2408 305.544H75.3855C74.3313 305.544 73.0724 306.311 71.747 307.755C67.653 312.222 63.7535 322.39 64.1884 327.534L62.6583 327.682Z" fill="#274D76"/>
<path d="M296.824 181.829V180.805H290.867C289.891 180.804 288.956 180.416 288.267 179.726C287.577 179.037 287.189 178.101 287.187 177.126V159.148H271.902V160.172C271.902 160.571 271.794 200.211 271.902 210.886V213.414L273.641 211.582C279.204 205.728 286.067 205.651 292.699 205.579C293.722 205.579 294.797 205.579 295.826 205.518L296.798 205.487V204.51C296.931 195.723 296.824 181.967 296.824 181.829ZM295.8 204.51C288.288 204.771 279.69 203.762 272.91 210.891C272.802 200.098 272.91 160.192 272.91 160.192H286.154V177.136C286.154 177.754 286.275 178.365 286.512 178.936C286.748 179.507 287.094 180.025 287.531 180.462C287.968 180.898 288.486 181.245 289.057 181.481C289.627 181.718 290.239 181.839 290.857 181.839H295.8C295.8 181.839 295.908 195.615 295.8 204.51V204.51Z" fill="#74BAAB"/>
<path d="M306.573 156.293C307.279 153.442 308.144 149.845 309.075 145.884C309.671 143.344 311.107 141.079 313.15 139.456C315.193 137.834 317.724 136.948 320.333 136.944H337.165C340.347 136.942 343.447 135.932 346.021 134.061C348.595 132.189 350.511 129.551 351.494 126.524C351.11 126.524 350.721 126.55 350.306 126.55C339.954 126.55 339.954 121.003 329.606 121.003C319.259 121.003 319.284 126.55 308.911 126.55C298.538 126.55 298.564 121.003 288.211 121.003C277.858 121.003 277.863 126.55 267.511 126.55C257.158 126.55 257.158 121.003 246.811 121.003C236.463 121.003 236.458 126.55 226.11 126.55C215.763 126.55 215.773 121.003 205.431 121.003C195.088 121.003 195.078 126.55 184.731 126.55C174.383 126.55 174.378 121.003 164.03 121.003C153.683 121.003 153.683 126.55 143.33 126.55C132.978 126.55 132.983 121.003 122.635 121.003C112.288 121.003 112.288 126.55 101.935 126.55C99.3607 126.619 96.8003 126.15 94.4174 125.173C93.8585 127.302 93.5764 129.493 93.5781 131.693V131.693C93.5781 185.739 145.715 228.168 199.766 228.168H238.321C250.536 228.168 262.251 223.315 270.888 214.678C279.526 206.04 284.378 194.326 284.378 182.11C284.378 174.7 291.031 170.187 297.791 168.002C305.042 165.663 304.914 162.946 306.573 156.293Z" fill="#74BAAB"/>
<path d="M207.585 22.8957C202.087 22.8957 196.814 25.0798 192.926 28.9676C189.038 32.8554 186.854 38.1284 186.854 43.6265V64.1885H200.723V43.6265C200.724 41.8069 201.447 40.0622 202.734 38.7755C204.021 37.4888 205.765 36.7654 207.585 36.764C209.078 36.764 210.51 36.1709 211.566 35.1152C212.621 34.0596 213.214 32.6278 213.214 31.1348V28.4993C213.208 27.0108 212.612 25.5855 211.557 24.5354C210.502 23.4852 209.074 22.8956 207.585 22.8957V22.8957Z" fill="#FFF3A1"/>
<path d="M101.93 126.55C112.282 126.55 112.282 121.003 122.63 121.003C132.977 121.003 132.983 126.55 143.33 126.55C153.678 126.55 153.683 121.003 164.03 121.003C174.378 121.003 174.378 126.55 184.73 126.55C195.083 126.55 195.078 121.003 205.431 121.003C215.783 121.003 215.773 126.55 226.131 126.55C236.489 126.55 236.478 121.003 246.831 121.003C257.184 121.003 257.178 126.55 267.531 126.55C277.884 126.55 277.884 121.003 288.231 121.003C298.579 121.003 298.584 126.55 308.932 126.55C319.279 126.55 319.284 121.003 329.637 121.003C339.989 121.003 339.984 126.55 350.337 126.55C350.751 126.55 351.14 126.55 351.524 126.524C352.012 125.022 352.261 123.452 352.261 121.873V86.0195C352.261 84.2683 351.571 82.5877 350.34 81.3423C349.109 80.0968 347.436 79.387 345.685 79.3668C340.528 79.3476 335.466 80.7644 331.068 83.4587C326.67 86.153 323.109 90.0184 320.784 94.622L319.305 97.5594C317.996 100.142 315.997 102.312 313.53 103.828C311.063 105.344 308.224 106.146 305.329 106.147H248.934C247.845 106.147 246.766 105.932 245.76 105.515C244.753 105.098 243.839 104.487 243.069 103.717C242.298 102.947 241.687 102.032 241.27 101.026C240.853 100.019 240.639 98.9405 240.639 97.8511V94.9239C240.639 82.4322 236.325 72.8062 222.062 66.4964C215.888 63.851 209.387 62.0422 202.734 61.1179C188.031 59.0095 173.856 60.3861 173.856 75.237V95.9832C173.854 98.6792 172.783 101.264 170.876 103.17C168.969 105.076 166.383 106.147 163.687 106.147H119.114C113.474 106.147 107.993 108.014 103.525 111.455C99.0564 114.897 95.8524 119.72 94.4122 125.173C96.795 126.15 99.3554 126.619 101.93 126.55V126.55Z" fill="#FFF3A1"/>
<path d="M207.34 35.2593C206.045 35.2566 204.804 34.7406 203.889 33.8246C202.973 32.9085 202.459 31.667 202.458 30.3721V29.2104C202.499 27.9423 203.031 26.7399 203.943 25.8573C204.854 24.9748 206.073 24.4814 207.342 24.4814C208.611 24.4814 209.83 24.9748 210.742 25.8573C211.653 26.7399 212.186 27.9423 212.227 29.2104V30.3721C212.225 31.6678 211.71 32.9101 210.794 33.8264C209.878 34.7426 208.635 35.2579 207.34 35.2593V35.2593ZM207.34 25.3519C206.317 25.3532 205.336 25.7602 204.613 26.4835C203.889 27.2068 203.482 28.1875 203.481 29.2104V30.3721C203.462 30.891 203.548 31.4083 203.734 31.8933C203.919 32.3782 204.2 32.8208 204.561 33.1946C204.921 33.5683 205.353 33.8656 205.831 34.0687C206.309 34.2717 206.823 34.3764 207.342 34.3764C207.861 34.3764 208.375 34.2717 208.853 34.0687C209.331 33.8656 209.763 33.5683 210.123 33.1946C210.484 32.8208 210.765 32.3782 210.951 31.8933C211.136 31.4083 211.222 30.891 211.203 30.3721V29.2104C211.202 28.1866 210.794 27.2052 210.07 26.4817C209.345 25.7582 208.363 25.3519 207.34 25.3519V25.3519Z" fill="#274D76"/>
<path d="M311.895 136.57C311.856 136.575 311.816 136.575 311.777 136.57C303.727 134.472 298.927 128.587 298.927 120.829V119.472C298.918 116.923 299.511 114.407 300.657 112.129C301.67 110.121 303.171 108.401 305.022 107.124C305.123 107.067 305.242 107.051 305.354 107.077C305.467 107.104 305.566 107.172 305.63 107.269C305.695 107.365 305.721 107.482 305.703 107.597C305.685 107.711 305.625 107.815 305.534 107.887C303.81 109.074 302.413 110.675 301.47 112.543C300.391 114.693 299.832 117.067 299.838 119.472V120.829C299.838 128.249 304.27 133.658 312.002 135.669C312.108 135.701 312.198 135.77 312.258 135.862C312.318 135.955 312.343 136.065 312.329 136.175C312.314 136.284 312.262 136.384 312.181 136.459C312.099 136.533 311.994 136.576 311.884 136.58L311.895 136.57Z" fill="black"/>
<path d="M348.531 101.674H335.875C333.265 101.677 330.762 102.715 328.916 104.561C327.07 106.407 326.032 108.909 326.029 111.52V132.732C326.029 132.854 326.078 132.971 326.164 133.057C326.25 133.144 326.367 133.192 326.49 133.192C326.612 133.192 326.729 133.144 326.815 133.057C326.902 132.971 326.95 132.854 326.95 132.732V111.52C326.954 109.155 327.896 106.887 329.569 105.215C331.242 103.543 333.51 102.603 335.875 102.6H348.531C348.595 102.607 348.661 102.6 348.723 102.58C348.785 102.56 348.842 102.527 348.891 102.483C348.939 102.439 348.978 102.386 349.005 102.326C349.031 102.267 349.045 102.202 349.045 102.137C349.045 102.072 349.031 102.007 349.005 101.947C348.978 101.888 348.939 101.834 348.891 101.791C348.842 101.747 348.785 101.714 348.723 101.694C348.661 101.674 348.595 101.667 348.531 101.674V101.674Z" fill="black"/>
<path d="M228.275 74.3977H177.121V75.4212H228.275V74.3977Z" fill="#274D76"/>
<path d="M234.477 83.471H177.837V84.4945H234.477V83.471Z" fill="#274D76"/>
<path d="M242.711 105.635H172.623V106.658H242.711V105.635Z" fill="#274D76"/>
<path d="M203.829 187.944C199.011 187.944 194.302 186.516 190.296 183.839C186.29 181.162 183.168 177.358 181.324 172.907C179.48 168.456 178.998 163.558 179.938 158.833C180.878 154.108 183.198 149.767 186.605 146.361C190.011 142.954 194.352 140.634 199.077 139.694C203.802 138.754 208.7 139.236 213.151 141.08C217.602 142.924 221.406 146.046 224.083 150.052C226.76 154.058 228.188 158.767 228.188 163.585C228.18 170.043 225.611 176.234 221.045 180.801C216.478 185.367 210.287 187.936 203.829 187.944V187.944ZM203.829 140.249C199.214 140.249 194.702 141.618 190.864 144.182C187.027 146.746 184.036 150.391 182.27 154.655C180.504 158.919 180.041 163.611 180.942 168.138C181.842 172.664 184.065 176.822 187.328 180.086C190.592 183.349 194.75 185.572 199.277 186.472C203.803 187.373 208.495 186.911 212.759 185.144C217.023 183.378 220.668 180.387 223.232 176.55C225.796 172.712 227.165 168.2 227.165 163.585C227.158 157.398 224.697 151.467 220.322 147.092C215.948 142.717 210.016 140.256 203.829 140.249Z" fill="white"/>
<path d="M203.829 175.55C210.437 175.55 215.794 170.193 215.794 163.585C215.794 156.977 210.437 151.62 203.829 151.62C197.221 151.62 191.864 156.977 191.864 163.585C191.864 170.193 197.221 175.55 203.829 175.55Z" fill="#274D76"/>
<path d="M223.371 163.977C223.604 162.526 222.616 161.161 221.165 160.928C219.714 160.695 218.349 161.683 218.116 163.134C217.883 164.585 218.87 165.95 220.321 166.183C221.773 166.416 223.138 165.429 223.371 163.977Z" fill="white"/>
<path d="M188.342 163.98C188.575 162.529 187.588 161.163 186.137 160.93C184.686 160.698 183.321 161.685 183.088 163.136C182.855 164.587 183.842 165.952 185.293 166.185C186.744 166.418 188.11 165.431 188.342 163.98Z" fill="white"/>
<path d="M150.009 182.351C146.297 182.351 142.669 181.25 139.583 179.188C136.497 177.126 134.092 174.195 132.671 170.766C131.251 167.337 130.879 163.564 131.603 159.924C132.327 156.284 134.115 152.94 136.739 150.316C139.364 147.691 142.707 145.904 146.348 145.18C149.988 144.456 153.761 144.827 157.19 146.248C160.619 147.668 163.55 150.073 165.612 153.159C167.674 156.245 168.774 159.873 168.774 163.585C168.769 168.56 166.79 173.33 163.272 176.848C159.754 180.366 154.984 182.345 150.009 182.351V182.351ZM150.009 145.843C146.499 145.843 143.069 146.883 140.151 148.833C137.234 150.782 134.96 153.553 133.617 156.795C132.274 160.037 131.923 163.605 132.607 167.046C133.292 170.488 134.982 173.649 137.463 176.131C139.944 178.612 143.105 180.302 146.547 180.986C149.989 181.671 153.556 181.32 156.798 179.977C160.04 178.634 162.811 176.36 164.761 173.442C166.71 170.524 167.751 167.094 167.751 163.585C167.745 158.881 165.874 154.371 162.548 151.045C159.222 147.719 154.712 145.848 150.009 145.843V145.843Z" fill="white"/>
<path d="M156.484 170.062C160.061 166.485 160.061 160.685 156.484 157.107C152.906 153.53 147.106 153.53 143.529 157.107C139.952 160.685 139.952 166.485 143.529 170.062C147.106 173.639 152.906 173.639 156.484 170.062Z" fill="#274D76"/>
<path d="M164.982 163.559C164.982 163.964 164.862 164.36 164.637 164.697C164.412 165.033 164.093 165.296 163.719 165.451C163.345 165.606 162.933 165.646 162.536 165.567C162.139 165.488 161.774 165.293 161.488 165.007C161.202 164.721 161.007 164.356 160.928 163.959C160.849 163.562 160.889 163.15 161.044 162.776C161.199 162.402 161.461 162.082 161.798 161.857C162.135 161.632 162.53 161.512 162.935 161.512C163.478 161.512 163.999 161.728 164.383 162.112C164.767 162.496 164.982 163.017 164.982 163.559Z" fill="white"/>
<path d="M138.172 163.559C138.172 163.964 138.052 164.36 137.827 164.697C137.602 165.033 137.282 165.296 136.908 165.451C136.534 165.606 136.123 165.646 135.725 165.567C135.328 165.488 134.964 165.293 134.677 165.007C134.391 164.721 134.196 164.356 134.117 163.959C134.038 163.562 134.079 163.15 134.234 162.776C134.389 162.402 134.651 162.082 134.988 161.857C135.324 161.632 135.72 161.512 136.125 161.512C136.668 161.512 137.188 161.728 137.572 162.112C137.956 162.496 138.172 163.017 138.172 163.559Z" fill="white"/>
<path d="M256.529 182.351C252.817 182.351 249.189 181.25 246.103 179.188C243.017 177.126 240.612 174.195 239.191 170.766C237.771 167.337 237.399 163.564 238.123 159.924C238.848 156.284 240.635 152.94 243.259 150.316C245.884 147.691 249.227 145.904 252.868 145.18C256.508 144.456 260.281 144.827 263.71 146.248C267.139 147.668 270.07 150.073 272.132 153.159C274.194 156.245 275.294 159.873 275.294 163.585C275.289 168.56 273.31 173.33 269.792 176.848C266.274 180.366 261.504 182.345 256.529 182.351V182.351ZM256.529 145.843C253.02 145.843 249.589 146.883 246.672 148.833C243.754 150.782 241.48 153.553 240.137 156.795C238.794 160.037 238.443 163.605 239.127 167.046C239.812 170.488 241.502 173.649 243.983 176.131C246.464 178.612 249.626 180.302 253.067 180.986C256.509 181.671 260.076 181.32 263.318 179.977C266.56 178.634 269.331 176.36 271.281 173.442C273.23 170.524 274.271 167.094 274.271 163.585C274.266 158.881 272.394 154.371 269.068 151.045C265.742 147.719 261.233 145.848 256.529 145.843V145.843Z" fill="white"/>
<path d="M263.006 170.06C266.583 166.482 266.583 160.682 263.006 157.105C259.429 153.528 253.629 153.528 250.051 157.105C246.474 160.682 246.474 166.482 250.051 170.06C253.629 173.637 259.429 173.637 263.006 170.06Z" fill="#274D76"/>
<path d="M271.502 163.559C271.502 163.964 271.382 164.36 271.157 164.697C270.933 165.033 270.613 165.296 270.239 165.451C269.865 165.606 269.453 165.646 269.056 165.567C268.659 165.488 268.294 165.293 268.008 165.007C267.722 164.721 267.527 164.356 267.448 163.959C267.369 163.562 267.409 163.15 267.564 162.776C267.719 162.402 267.982 162.082 268.318 161.857C268.655 161.632 269.051 161.512 269.455 161.512C269.998 161.512 270.519 161.728 270.903 162.112C271.287 162.496 271.502 163.017 271.502 163.559Z" fill="white"/>
<path d="M244.692 163.559C244.692 163.964 244.572 164.36 244.347 164.697C244.122 165.033 243.802 165.296 243.428 165.451C243.054 165.606 242.643 165.646 242.246 165.567C241.849 165.488 241.484 165.293 241.198 165.007C240.911 164.721 240.716 164.356 240.637 163.959C240.558 163.562 240.599 163.15 240.754 162.776C240.909 162.402 241.171 162.082 241.508 161.857C241.844 161.632 242.24 161.512 242.645 161.512C243.188 161.512 243.709 161.728 244.092 162.112C244.476 162.496 244.692 163.017 244.692 163.559Z" fill="white"/>
<path d="M125.265 113.434H124.242V185.872H125.265V113.434Z" fill="white"/>
<path d="M286.563 271.466C286.337 271.466 286.111 271.435 285.893 271.374L200.421 247.68C199.766 247.499 199.211 247.064 198.877 246.473C198.543 245.882 198.458 245.182 198.64 244.528C198.822 243.874 199.256 243.319 199.847 242.985C200.438 242.651 201.138 242.565 201.792 242.747L287.254 266.451C287.852 266.616 288.37 266.993 288.711 267.511C289.052 268.03 289.193 268.654 289.108 269.269C289.023 269.884 288.718 270.446 288.248 270.853C287.779 271.259 287.178 271.48 286.558 271.477L286.563 271.466Z" fill="#93B4F6"/>
<path d="M200.769 223.035C198.368 223.035 196.021 223.747 194.025 225.08C192.029 226.414 190.473 228.31 189.554 230.528C188.635 232.746 188.395 235.187 188.863 237.542C189.332 239.896 190.488 242.059 192.185 243.757C193.883 245.454 196.046 246.61 198.401 247.079C200.755 247.547 203.196 247.307 205.414 246.388C207.632 245.469 209.528 243.913 210.862 241.917C212.196 239.921 212.907 237.574 212.907 235.173C212.907 231.954 211.629 228.867 209.352 226.59C207.076 224.314 203.988 223.035 200.769 223.035ZM200.769 240.537C199.708 240.537 198.671 240.222 197.789 239.633C196.907 239.043 196.22 238.206 195.814 237.226C195.408 236.246 195.302 235.167 195.509 234.127C195.716 233.087 196.226 232.131 196.976 231.381C197.727 230.631 198.682 230.12 199.722 229.913C200.763 229.706 201.841 229.813 202.821 230.219C203.801 230.624 204.639 231.312 205.228 232.194C205.817 233.076 206.132 234.113 206.132 235.173C206.126 236.592 205.559 237.951 204.554 238.952C203.549 239.954 202.188 240.516 200.769 240.516V240.537Z" fill="#274D76"/>
<path d="M200.769 222.011C198.166 222.011 195.621 222.783 193.456 224.229C191.292 225.676 189.605 227.731 188.609 230.136C187.612 232.542 187.352 235.188 187.86 237.741C188.367 240.294 189.621 242.64 191.462 244.48C193.302 246.321 195.648 247.575 198.201 248.083C200.754 248.591 203.401 248.33 205.806 247.334C208.211 246.337 210.266 244.65 211.713 242.486C213.159 240.321 213.931 237.777 213.931 235.173C213.927 231.684 212.539 228.338 210.071 225.871C207.604 223.403 204.258 222.015 200.769 222.011V222.011ZM200.769 247.312C198.368 247.312 196.021 246.6 194.025 245.266C192.029 243.933 190.473 242.037 189.554 239.819C188.635 237.601 188.395 235.16 188.863 232.805C189.332 230.451 190.488 228.288 192.185 226.59C193.883 224.892 196.046 223.736 198.401 223.268C200.755 222.8 203.196 223.04 205.414 223.959C207.632 224.877 209.528 226.433 210.862 228.43C212.195 230.426 212.907 232.773 212.907 235.173C212.907 238.393 211.629 241.48 209.352 243.757C207.076 246.033 203.988 247.312 200.769 247.312Z" fill="#74BAAB"/>
<path d="M200.769 229.81C199.708 229.81 198.671 230.125 197.789 230.714C196.907 231.303 196.22 232.141 195.814 233.121C195.408 234.101 195.302 235.179 195.509 236.22C195.716 237.26 196.226 238.216 196.976 238.966C197.726 239.716 198.682 240.226 199.722 240.433C200.763 240.64 201.841 240.534 202.821 240.128C203.801 239.722 204.639 239.035 205.228 238.153C205.817 237.271 206.132 236.234 206.132 235.173C206.132 233.751 205.567 232.387 204.561 231.381C203.555 230.375 202.191 229.81 200.769 229.81V229.81ZM200.769 239.533C199.91 239.533 199.071 239.279 198.358 238.802C197.644 238.325 197.088 237.647 196.759 236.854C196.431 236.061 196.345 235.189 196.512 234.347C196.68 233.505 197.093 232.732 197.7 232.125C198.307 231.518 199.08 231.105 199.922 230.938C200.764 230.77 201.636 230.856 202.429 231.184C203.222 231.513 203.9 232.069 204.377 232.783C204.854 233.496 205.108 234.335 205.108 235.194C205.096 236.337 204.634 237.43 203.821 238.234C203.009 239.039 201.912 239.491 200.769 239.492V239.533Z" fill="#74BAAB"/>
<path d="M287.96 257.056C285.86 257.056 283.807 257.679 282.061 258.845C280.315 260.012 278.954 261.671 278.15 263.611C277.346 265.551 277.136 267.686 277.546 269.746C277.955 271.806 278.967 273.698 280.452 275.183C281.937 276.668 283.829 277.679 285.889 278.089C287.948 278.499 290.084 278.289 292.024 277.485C293.964 276.681 295.623 275.32 296.789 273.574C297.956 271.828 298.579 269.775 298.579 267.674C298.579 264.858 297.46 262.157 295.469 260.166C293.477 258.174 290.777 257.056 287.96 257.056ZM287.96 272.362C287.032 272.362 286.124 272.087 285.353 271.571C284.581 271.055 283.979 270.322 283.624 269.464C283.269 268.606 283.177 267.662 283.358 266.752C283.54 265.842 283.987 265.005 284.644 264.349C285.301 263.693 286.137 263.247 287.048 263.066C287.959 262.886 288.902 262.979 289.76 263.335C290.617 263.691 291.35 264.294 291.865 265.066C292.38 265.838 292.654 266.746 292.653 267.674C292.652 268.918 292.157 270.11 291.277 270.989C290.397 271.868 289.204 272.362 287.96 272.362V272.362Z" fill="#274D76"/>
<path d="M287.96 256.032C285.658 256.032 283.407 256.715 281.492 257.994C279.578 259.274 278.085 261.092 277.204 263.219C276.323 265.347 276.093 267.687 276.542 269.946C276.991 272.204 278.1 274.279 279.728 275.907C281.356 277.535 283.431 278.644 285.689 279.093C287.947 279.542 290.288 279.312 292.416 278.431C294.543 277.549 296.361 276.057 297.641 274.143C298.92 272.228 299.603 269.977 299.603 267.674C299.6 264.588 298.372 261.628 296.19 259.445C294.007 257.262 291.047 256.035 287.96 256.032ZM287.96 278.293C285.86 278.293 283.807 277.67 282.061 276.504C280.315 275.337 278.954 273.678 278.15 271.738C277.346 269.798 277.136 267.663 277.546 265.603C277.955 263.543 278.967 261.651 280.452 260.166C281.937 258.681 283.829 257.669 285.889 257.26C287.949 256.85 290.084 257.06 292.024 257.864C293.964 258.668 295.623 260.029 296.79 261.775C297.956 263.521 298.579 265.574 298.579 267.674C298.579 270.491 297.46 273.192 295.469 275.183C293.478 277.174 290.777 278.293 287.96 278.293Z" fill="#93B4F6"/>
<path d="M287.96 262.982C287.032 262.982 286.125 263.257 285.353 263.773C284.582 264.288 283.98 265.021 283.625 265.879C283.27 266.736 283.177 267.68 283.358 268.59C283.539 269.5 283.986 270.336 284.642 270.993C285.298 271.649 286.135 272.096 287.045 272.277C287.955 272.458 288.899 272.365 289.756 272.01C290.614 271.655 291.347 271.053 291.862 270.282C292.378 269.51 292.653 268.603 292.653 267.674C292.653 266.43 292.159 265.236 291.279 264.356C290.399 263.476 289.205 262.982 287.96 262.982ZM287.96 271.339C287.234 271.339 286.525 271.123 285.921 270.72C285.318 270.316 284.848 269.743 284.57 269.072C284.292 268.402 284.22 267.664 284.362 266.952C284.504 266.24 284.854 265.586 285.368 265.073C285.881 264.56 286.536 264.211 287.248 264.07C287.96 263.929 288.698 264.002 289.368 264.281C290.038 264.559 290.611 265.031 291.014 265.635C291.416 266.239 291.631 266.949 291.63 267.674C291.628 268.647 291.241 269.579 290.553 270.266C289.865 270.953 288.933 271.339 287.96 271.339V271.339Z" fill="#93B4F6"/>
<path d="M300.114 276.43C300.114 276.43 292.847 288.851 291.808 298.001L293.287 298.865C298.671 295.749 308.015 281.052 308.015 281.052L300.114 276.43Z" fill="#274D76"/>
<path d="M308.533 280.166L300.631 275.56L299.746 275.049L299.234 275.934C298.932 276.446 291.85 288.651 290.795 297.908L290.724 298.568L291.297 298.906L291.967 299.3L292.776 299.771L293.288 300.073L293.799 299.771C299.336 296.562 308.492 282.228 308.88 281.619L309.449 280.724L308.533 280.166ZM293.288 298.855L291.809 297.99C292.832 288.84 300.114 276.42 300.114 276.42L308.016 281.026C308.016 281.026 298.676 295.749 293.288 298.855Z" fill="#93B4F6"/>
<path d="M293.231 297.269C292.684 296.948 292.053 296.797 291.42 296.834C290.786 296.872 290.178 297.096 289.672 297.479C289.166 297.862 288.785 298.387 288.578 298.986C288.37 299.586 288.344 300.234 288.505 300.848C288.665 301.462 289.004 302.014 289.478 302.436C289.953 302.857 290.541 303.129 291.17 303.216C291.799 303.303 292.439 303.201 293.01 302.924C293.581 302.647 294.057 302.207 294.378 301.66C294.807 300.925 294.927 300.05 294.712 299.227C294.497 298.404 293.965 297.7 293.231 297.269V297.269Z" fill="#274D76"/>
<path d="M295.703 298.968C295.465 298.064 294.934 297.263 294.193 296.692C293.453 296.121 292.544 295.811 291.609 295.81C290.962 295.809 290.323 295.957 289.742 296.242C289.161 296.527 288.653 296.942 288.257 297.454C287.862 297.966 287.589 298.562 287.461 299.197C287.332 299.831 287.35 300.486 287.515 301.112C287.652 301.653 287.896 302.162 288.231 302.609C288.565 303.056 288.985 303.432 289.466 303.716C289.947 304 290.48 304.185 291.033 304.262C291.586 304.339 292.149 304.306 292.689 304.165C293.229 304.023 293.736 303.776 294.181 303.438C294.625 303.1 294.998 302.677 295.278 302.194C295.558 301.711 295.74 301.177 295.813 300.623C295.886 300.07 295.848 299.507 295.703 298.968V298.968ZM294.378 301.66C294.056 302.204 293.581 302.64 293.012 302.915C292.443 303.189 291.806 303.289 291.18 303.201C290.555 303.114 289.969 302.843 289.497 302.423C289.025 302.003 288.688 301.453 288.529 300.842C288.369 300.23 288.394 299.586 288.6 298.989C288.807 298.392 289.185 297.869 289.688 297.487C290.191 297.105 290.796 296.88 291.427 296.841C292.057 296.802 292.685 296.951 293.231 297.269C293.596 297.481 293.915 297.763 294.17 298.099C294.425 298.435 294.611 298.818 294.718 299.226C294.824 299.634 294.849 300.059 294.791 300.477C294.732 300.894 294.592 301.296 294.378 301.66V301.66Z" fill="#93B4F6"/>
<path d="M309.535 278.457C309.535 278.457 317.759 263.104 317.836 256.882L316.357 256.017C308.896 261.411 301.629 273.836 301.629 273.836L309.535 278.457Z" fill="#274D76"/>
<path d="M318.353 256.001L317.493 255.49L316.874 255.126L316.301 254.789L315.758 255.178C308.205 260.638 301.046 272.792 300.744 273.309L300.232 274.189L301.112 274.701L309.019 279.306L309.935 279.818L310.447 278.882C310.789 278.247 318.788 263.238 318.87 256.841V256.247L318.353 256.001ZM309.536 278.457L301.629 273.851C301.629 273.851 308.896 261.426 316.357 256.032L317.836 256.897C317.759 263.104 309.536 278.457 309.536 278.457Z" fill="#93B4F6"/>
<path d="M316.419 257.614C316.967 257.934 317.597 258.084 318.23 258.046C318.864 258.007 319.472 257.782 319.977 257.398C320.482 257.015 320.863 256.49 321.07 255.89C321.277 255.29 321.302 254.643 321.141 254.029C320.98 253.415 320.64 252.863 320.166 252.442C319.691 252.021 319.102 251.75 318.473 251.664C317.845 251.578 317.204 251.68 316.634 251.957C316.063 252.235 315.588 252.675 315.267 253.223C314.839 253.958 314.719 254.833 314.935 255.656C315.151 256.479 315.685 257.183 316.419 257.614Z" fill="#274D76"/>
<path d="M320.17 251.191C319.446 250.771 318.614 250.575 317.779 250.628C316.943 250.681 316.143 250.98 315.478 251.488C314.812 251.996 314.313 252.69 314.042 253.482C313.771 254.274 313.741 255.128 313.956 255.937C314.17 256.746 314.62 257.473 315.247 258.026C315.875 258.58 316.653 258.935 317.482 259.046C318.312 259.158 319.156 259.021 319.907 258.653C320.659 258.285 321.284 257.702 321.705 256.979C322.267 256.007 322.421 254.853 322.133 253.768C321.845 252.683 321.139 251.756 320.17 251.191ZM320.804 256.467C320.484 257.017 320.008 257.459 319.436 257.737C318.865 258.016 318.223 258.119 317.593 258.033C316.963 257.947 316.373 257.676 315.897 257.254C315.421 256.833 315.08 256.279 314.919 255.664C314.758 255.049 314.783 254.4 314.99 253.799C315.198 253.198 315.58 252.672 316.087 252.288C316.593 251.903 317.203 251.678 317.838 251.641C318.473 251.603 319.104 251.755 319.653 252.076C320.388 252.506 320.922 253.209 321.139 254.033C321.356 254.856 321.238 255.731 320.809 256.467H320.804Z" fill="#93B4F6"/>
<path d="M304.305 192.924C304.305 182.996 306.926 174.951 310.155 174.951H297.601C294.372 174.951 291.752 182.996 291.752 192.924C291.752 202.851 294.372 210.891 297.601 210.891H310.155C306.936 210.891 304.305 202.846 304.305 192.924Z" fill="#74BAAB"/>
<path d="M307.478 189.044C307.99 189.044 309.822 189.684 310.764 192.084C312.539 190.728 312.811 186.23 312.811 185.519C312.749 181.614 311.49 178.707 310.221 178.769C308.722 178.835 307.258 182.77 307.453 188.267C307.453 188.548 307.468 188.83 307.478 189.044ZM307.529 190.472C306.629 193.195 307.054 204.034 308.809 206.556C309.321 207.258 310.052 207.421 310.452 206.638C311.475 204.622 311.874 199.725 311.296 195.405C310.764 191.439 308.164 190.442 307.529 190.472V190.472ZM312.335 190.928C312.181 191.603 311.871 192.232 311.429 192.765C313.23 198.471 312.038 201.71 312.038 201.71C312.038 201.71 314.269 201.352 314.295 196.9C314.315 193.676 313.609 191.593 312.335 190.928V190.928Z" fill="#93B4F6"/>
<path d="M291.706 252.834C291.434 252.782 291.155 252.785 290.884 252.845C290.614 252.904 290.358 253.017 290.133 253.178C289.908 253.339 289.718 253.543 289.574 253.78C289.43 254.016 289.335 254.279 289.296 254.553L289.055 256.237C289.045 256.324 289.003 256.404 288.937 256.462C288.872 256.52 288.787 256.552 288.7 256.552C288.612 256.552 288.527 256.52 288.462 256.462C288.396 256.404 288.354 256.324 288.344 256.237L288.083 254.528C288.036 254.225 287.922 253.936 287.749 253.684C287.577 253.431 287.349 253.22 287.084 253.067C286.819 252.914 286.522 252.822 286.217 252.798C285.912 252.775 285.605 252.82 285.319 252.931C284.879 253.11 284.513 253.433 284.281 253.848C284.049 254.263 283.966 254.745 284.045 255.213L284.245 256.498C284.29 256.782 284.238 257.074 284.097 257.325C283.956 257.576 283.734 257.772 283.468 257.882C283.201 257.991 282.906 258.008 282.629 257.928C282.352 257.849 282.11 257.679 281.942 257.445L281.011 256.155C280.736 255.764 280.336 255.479 279.876 255.348C279.417 255.218 278.926 255.25 278.488 255.438C278.209 255.562 277.962 255.746 277.763 255.978C277.565 256.209 277.421 256.482 277.341 256.776C277.262 257.07 277.249 257.379 277.304 257.678C277.359 257.978 277.48 258.262 277.659 258.509L284.163 267.495C284.353 267.759 284.603 267.973 284.892 268.121C285.181 268.268 285.501 268.345 285.826 268.345C286.241 268.345 289.869 266.39 289.961 266.39C290.985 266.39 291.747 266.436 291.89 265.412L293.333 255.239C293.417 254.706 293.296 254.162 292.994 253.716C292.691 253.269 292.231 252.954 291.706 252.834V252.834ZM284.859 268.892C283.974 269.593 284.588 269.348 283.933 270.085C283.933 270.115 287.003 274.987 283.851 279.122C282.996 280.192 281.956 281.101 280.78 281.804C278.923 283.052 276.814 284.465 275.432 288.369C272.321 297.171 278.795 304.745 279.071 305.093C279.239 305.321 279.453 305.511 279.698 305.652C279.944 305.793 280.216 305.882 280.497 305.912C280.779 305.943 281.063 305.915 281.333 305.83C281.603 305.744 281.853 305.604 282.066 305.418C282.279 305.231 282.451 305.003 282.571 304.747C282.691 304.49 282.757 304.212 282.764 303.929C282.771 303.646 282.72 303.364 282.612 303.102C282.505 302.84 282.345 302.604 282.141 302.407C282.09 302.35 276.947 296.317 279.271 289.736C280.202 287.11 281.394 286.312 283.042 285.207C284.597 284.264 285.972 283.051 287.1 281.625C291.138 276.313 289.27 271.205 287.725 269.251C287.391 268.824 286.903 268.547 286.366 268.48C285.829 268.413 285.287 268.561 284.859 268.892V268.892Z" fill="#93B4F6"/>
<path d="M202.191 232.635C201.627 232.562 201.054 232.679 200.564 232.968C200.401 232.877 200.229 232.802 200.052 232.743C199.41 232.536 198.711 232.591 198.109 232.897C197.507 233.203 197.05 233.734 196.838 234.375L192.806 246.514C192.592 247.158 192.643 247.86 192.947 248.467C193.251 249.073 193.784 249.534 194.428 249.748C194.688 249.837 194.962 249.882 195.237 249.881C195.678 249.88 196.112 249.764 196.496 249.545C196.88 249.326 197.201 249.012 197.427 248.632L197.248 249.912C197.202 250.245 197.223 250.583 197.309 250.908C197.394 251.233 197.543 251.538 197.746 251.806C197.95 252.073 198.204 252.298 198.494 252.468C198.784 252.637 199.105 252.747 199.438 252.793C199.554 252.8 199.67 252.8 199.786 252.793C200.409 252.799 201.012 252.577 201.483 252.17C201.954 251.763 202.26 251.199 202.345 250.582L204.392 235.511C204.436 235.178 204.415 234.839 204.328 234.514C204.242 234.189 204.092 233.884 203.888 233.617C203.683 233.35 203.428 233.126 203.137 232.957C202.846 232.789 202.525 232.679 202.191 232.635Z" fill="#93B4F6"/>
<path d="M373.171 310.932C378.13 283.098 356.237 259.788 353.853 259.077L351.524 261.472C353.571 264.174 361.089 279.091 359.293 294.137C359.259 294.414 359.167 294.68 359.021 294.918C358.875 295.155 358.679 295.358 358.447 295.513C358.215 295.668 357.952 295.77 357.677 295.814C357.401 295.857 357.12 295.84 356.852 295.764C338.086 290.508 311.889 276.006 311.889 276.006L310.958 277.464L292.689 267.127C292.345 266.933 291.966 266.808 291.574 266.76C291.182 266.712 290.785 266.742 290.405 266.848C290.024 266.953 289.668 267.133 289.357 267.376C289.046 267.619 288.786 267.922 288.592 268.265C288.398 268.609 288.273 268.988 288.225 269.38C288.177 269.772 288.207 270.169 288.313 270.549C288.419 270.93 288.598 271.286 288.842 271.597C289.085 271.908 289.387 272.168 289.731 272.362L308.036 282.72L307.314 283.794C307.314 283.794 335.624 299.474 346.207 310.211C346.472 310.481 346.671 310.808 346.788 311.168C346.905 311.528 346.937 311.909 346.882 312.284C346.827 312.658 346.686 313.014 346.471 313.325C346.255 313.635 345.97 313.892 345.639 314.074C333.255 320.932 315.298 325.072 312.12 324.361L310.958 327.513C312.677 329.278 345.322 334.35 368.274 318.875C369.637 317.946 371.232 317.414 372.879 317.339C373.453 317.339 374.077 316.27 373.826 315.738C373.115 314.243 372.886 312.563 373.171 310.932V310.932Z" fill="#274D76"/>
<path d="M374.179 311.137C376.846 296.179 371.836 282.884 367.163 274.368C362.133 265.192 355.874 258.637 354.145 258.12L353.551 257.946L353.116 258.391L350.793 260.786L350.179 261.421L350.69 262.122C352.86 264.962 359.984 279.557 358.259 294.045C358.232 294.264 358.125 294.466 357.959 294.612C357.793 294.758 357.579 294.838 357.358 294.838C357.274 294.838 357.19 294.828 357.108 294.807C338.685 289.644 312.621 275.279 312.36 275.136L311.526 274.675L311.014 275.473L310.59 276.123L293.155 266.262C292.459 265.866 291.662 265.687 290.864 265.746C290.066 265.805 289.304 266.101 288.675 266.595C288.046 267.089 287.578 267.759 287.332 268.52C287.085 269.281 287.07 270.098 287.29 270.868C287.429 271.379 287.669 271.857 287.995 272.274C288.321 272.691 288.726 273.04 289.188 273.298L306.537 283.109L306.429 283.267L305.81 284.194L306.782 284.736C306.854 284.772 313.947 288.707 322.222 293.896C333.142 300.738 341.156 306.644 345.429 310.978C345.584 311.133 345.7 311.322 345.769 311.53C345.837 311.738 345.856 311.959 345.824 312.176C345.788 312.39 345.704 312.594 345.578 312.771C345.452 312.948 345.287 313.095 345.097 313.199C333.803 319.453 317.688 323.434 313.026 323.434C312.782 323.441 312.539 323.422 312.299 323.378L311.419 323.184L311.112 324.028L309.965 327.165L309.745 327.769L310.196 328.229C311.506 329.575 319.801 330.757 327.943 330.757C337.093 330.757 354.554 329.325 368.791 319.719C369.99 318.895 371.395 318.42 372.849 318.348C373.185 318.31 373.508 318.192 373.788 318.002C374.068 317.812 374.297 317.556 374.456 317.258C374.651 316.972 374.774 316.644 374.813 316.3C374.852 315.957 374.807 315.609 374.681 315.287C374.093 313.988 373.918 312.539 374.179 311.137V311.137ZM373.77 315.743C374.021 316.255 373.396 317.319 372.823 317.345C371.175 317.42 369.581 317.951 368.218 318.88C355.465 327.487 339.713 329.739 327.943 329.739C318.547 329.739 311.69 328.301 310.927 327.518L312.074 324.381C312.387 324.444 312.706 324.471 313.026 324.463C317.903 324.463 334.135 320.441 345.593 314.095C345.925 313.913 346.209 313.656 346.425 313.345C346.64 313.035 346.781 312.678 346.836 312.304C346.891 311.93 346.859 311.548 346.742 311.189C346.625 310.829 346.426 310.501 346.161 310.231C335.594 299.485 307.269 283.815 307.269 283.815L307.99 282.74L289.685 272.382C288.991 271.99 288.481 271.338 288.267 270.57C288.054 269.802 288.154 268.98 288.546 268.286C288.938 267.592 289.59 267.082 290.359 266.868C291.127 266.655 291.949 266.755 292.643 267.147L310.912 277.485L311.864 276.026C311.864 276.026 338.081 290.509 356.852 295.785C357.018 295.832 357.19 295.856 357.363 295.856C357.835 295.857 358.291 295.684 358.644 295.371C358.997 295.058 359.222 294.626 359.277 294.157C361.074 279.112 353.577 264.194 351.509 261.492L353.838 259.097C356.222 259.809 378.115 283.119 373.156 310.953C372.869 312.563 373.083 314.223 373.77 315.707V315.743Z" fill="#93B4F6"/>
<path d="M301.736 270.585L297.287 278.191C296.8 279.026 297.08 280.098 297.915 280.586L305.522 285.035C306.356 285.522 307.428 285.242 307.916 284.407L312.365 276.8C312.853 275.966 312.572 274.894 311.737 274.406L304.131 269.957C303.296 269.469 302.224 269.75 301.736 270.585Z" fill="#274D76"/>
<path d="M313.517 275.182C313.331 274.47 312.871 273.861 312.238 273.488L304.628 269.041C304.203 268.792 303.719 268.661 303.226 268.662C302.742 268.663 302.267 268.791 301.847 269.031C301.427 269.271 301.077 269.617 300.831 270.034L296.384 277.643C296.199 277.958 296.079 278.306 296.029 278.667C295.979 279.028 296.001 279.395 296.093 279.748C296.185 280.1 296.346 280.431 296.566 280.722C296.786 281.012 297.062 281.257 297.376 281.441L304.986 285.888C305.621 286.258 306.377 286.362 307.088 286.176C307.799 285.99 308.407 285.529 308.778 284.895L313.23 277.285C313.415 276.971 313.536 276.623 313.585 276.262C313.634 275.901 313.611 275.534 313.517 275.182V275.182ZM312.345 276.768L307.888 284.378C307.73 284.644 307.506 284.864 307.236 285.016C306.967 285.168 306.662 285.246 306.352 285.243C306.043 285.243 305.739 285.16 305.472 285.002L297.863 280.555C297.664 280.439 297.49 280.286 297.351 280.102C297.212 279.919 297.11 279.71 297.052 279.488C296.994 279.265 296.981 279.033 297.013 278.805C297.045 278.578 297.121 278.358 297.238 278.16L301.685 270.551C301.92 270.15 302.304 269.86 302.754 269.742C303.203 269.625 303.68 269.691 304.08 269.926L311.69 274.373C311.891 274.487 312.068 274.639 312.21 274.821C312.353 275.002 312.457 275.211 312.519 275.433C312.58 275.656 312.597 275.889 312.568 276.118C312.539 276.347 312.465 276.568 312.35 276.768H312.345Z" fill="#93B4F6"/>
<path d="M350.363 127.062C345.056 127.062 342.369 125.624 339.77 124.232C337.17 122.84 334.708 121.514 329.657 121.514C324.606 121.514 322.155 122.835 319.55 124.232C316.946 125.629 314.264 127.062 308.957 127.062C303.65 127.062 300.969 125.624 298.369 124.232C295.769 122.84 293.303 121.514 288.257 121.514C283.211 121.514 280.755 122.835 278.15 124.232C275.545 125.629 272.864 127.062 267.557 127.062C262.25 127.062 259.563 125.624 256.964 124.232C254.364 122.84 251.902 121.514 246.857 121.514C241.811 121.514 239.314 122.814 236.724 124.232C234.135 125.649 231.433 127.062 226.131 127.062C220.829 127.062 218.137 125.624 215.538 124.232C212.938 122.84 210.477 121.514 205.431 121.514C200.385 121.514 197.923 122.814 195.303 124.232C192.683 125.649 190.012 127.062 184.71 127.062C179.408 127.062 176.717 125.624 174.117 124.232C171.517 122.84 169.056 121.514 164.01 121.514C158.964 121.514 156.503 122.835 153.903 124.232C151.303 125.629 148.611 127.062 143.31 127.062C138.008 127.062 135.316 125.624 132.717 124.232C130.117 122.84 127.655 121.514 122.61 121.514C117.564 121.514 115.107 122.835 112.503 124.232C109.898 125.629 107.216 127.062 101.909 127.062C96.6026 127.062 93.921 125.624 91.3213 124.232C88.7217 122.84 86.2602 121.514 81.2143 121.514C76.1685 121.514 73.707 122.835 71.1073 124.232C68.5077 125.629 65.8159 127.062 60.5142 127.062V126.038C65.56 126.038 68.0215 124.723 70.6212 123.326C73.2208 121.929 75.9075 120.491 81.2143 120.491C86.5212 120.491 89.2027 121.934 91.8024 123.326C94.4021 124.718 96.8636 126.038 101.909 126.038C106.955 126.038 109.417 124.723 112.022 123.326C114.626 121.929 117.308 120.491 122.61 120.491C127.911 120.491 130.603 121.934 133.203 123.326C135.802 124.718 138.264 126.038 143.31 126.038C148.356 126.038 150.817 124.723 153.417 123.326C156.016 121.929 158.708 120.491 164.01 120.491C169.312 120.491 172.003 121.934 174.603 123.326C177.203 124.718 179.664 126.038 184.71 126.038C189.756 126.038 192.212 124.723 194.817 123.326C197.422 121.929 200.103 120.491 205.41 120.491C210.717 120.491 213.399 121.934 216.003 123.326C218.608 124.718 221.065 126.038 226.11 126.038C231.156 126.038 233.633 124.723 236.243 123.326C238.853 121.929 241.529 120.491 246.836 120.491C252.143 120.491 254.83 121.934 257.429 123.326C260.029 124.718 262.491 126.038 267.536 126.038C272.582 126.038 275.044 124.723 277.643 123.326C280.243 121.929 282.935 120.491 288.237 120.491C293.538 120.491 296.23 121.934 298.83 123.326C301.429 124.718 303.891 126.038 308.937 126.038C313.983 126.038 316.444 124.723 319.049 123.326C321.654 121.929 324.335 120.491 329.637 120.491C334.939 120.491 337.63 121.934 340.23 123.326C342.83 124.718 345.291 126.038 350.342 126.038C355.393 126.038 357.844 124.723 360.449 123.326C363.054 121.929 365.736 120.491 371.042 120.491V121.514C365.997 121.514 363.535 122.835 360.935 124.232C358.336 125.629 355.639 127.062 350.363 127.062Z" fill="white"/>
<path d="M310.165 174.951C306.936 174.951 304.316 182.996 304.316 192.924C304.316 202.851 306.936 210.891 310.165 210.891C313.394 210.891 316.014 202.846 316.014 192.924C316.014 183.001 313.394 174.951 310.165 174.951ZM310.165 209.868C308.149 209.868 305.339 203.42 305.339 192.924C305.339 182.428 308.149 175.975 310.165 175.975C312.181 175.975 314.991 182.423 314.991 192.924C314.991 203.425 312.181 209.868 310.165 209.868Z" fill="white"/>
<path d="M197.974 246.898C197.946 246.903 197.916 246.903 197.887 246.898C197.828 246.886 197.771 246.864 197.721 246.831C197.67 246.798 197.626 246.755 197.592 246.705C197.558 246.655 197.534 246.599 197.521 246.54C197.509 246.481 197.508 246.42 197.519 246.36L199.755 234.713C199.767 234.653 199.79 234.597 199.823 234.546C199.856 234.496 199.899 234.452 199.95 234.418C200 234.384 200.056 234.36 200.115 234.348C200.175 234.336 200.236 234.336 200.295 234.347C200.355 234.358 200.411 234.381 200.462 234.415C200.513 234.448 200.556 234.491 200.59 234.541C200.624 234.591 200.648 234.648 200.66 234.707C200.672 234.766 200.673 234.827 200.661 234.887L198.43 246.534C198.406 246.637 198.348 246.729 198.265 246.795C198.183 246.861 198.08 246.897 197.974 246.898V246.898Z" fill="black"/>
<path d="M288.646 263.821C288.524 263.821 288.407 263.772 288.32 263.686C288.234 263.6 288.185 263.483 288.185 263.36V258.166C288.178 258.101 288.185 258.036 288.206 257.974C288.226 257.911 288.259 257.854 288.302 257.806C288.346 257.757 288.399 257.718 288.459 257.692C288.519 257.665 288.583 257.652 288.648 257.652C288.714 257.652 288.778 257.665 288.838 257.692C288.897 257.718 288.951 257.757 288.995 257.806C289.038 257.854 289.071 257.911 289.091 257.974C289.112 258.036 289.118 258.101 289.112 258.166V263.36C289.112 263.421 289.1 263.482 289.076 263.538C289.053 263.594 289.018 263.645 288.975 263.688C288.932 263.731 288.88 263.764 288.824 263.787C288.767 263.81 288.707 263.822 288.646 263.821V263.821Z" fill="black"/>
<path d="M285.013 263.099C284.926 263.1 284.842 263.076 284.769 263.031C284.695 262.985 284.636 262.921 284.598 262.843L282.853 259.261C282.826 259.207 282.81 259.148 282.806 259.087C282.802 259.026 282.81 258.966 282.83 258.908C282.849 258.851 282.88 258.798 282.92 258.752C282.96 258.706 283.008 258.669 283.063 258.642C283.117 258.615 283.176 258.599 283.237 258.595C283.298 258.591 283.358 258.599 283.416 258.619C283.473 258.638 283.526 258.669 283.572 258.709C283.618 258.749 283.655 258.797 283.682 258.852L285.427 262.434C285.454 262.488 285.47 262.548 285.474 262.608C285.478 262.669 285.471 262.73 285.451 262.787C285.432 262.845 285.401 262.898 285.361 262.944C285.321 262.989 285.272 263.027 285.217 263.053C285.153 263.083 285.083 263.098 285.013 263.099Z" fill="black"/>
<path d="M199.991 61.2817C196.024 60.7654 192.01 60.7173 188.031 61.1385L187.904 60.115C191.964 59.6861 196.06 59.7342 200.109 60.2582L199.991 61.2817Z" fill="#274D76"/>
</g>
<defs>
<clipPath id="clip0_8_2">
<rect width="445" height="332.421" fill="white"/>
</clipPath>
</defs>
</svg>
