<?xml version="1.0" encoding="utf-8"?>
<!DOCTYPE svg PUBLIC "-//W3C//DTD SVG 1.0//EN" "http://www.w3.org/TR/2001/REC-SVG-20010904/DTD/svg10.dtd">
<svg xmlns="http://www.w3.org/2000/svg" xml:space="preserve" xmlns:xlink="http://www.w3.org/1999/xlink" width="990" height="990" viewBox="0 0 990 990">
<desc></desc>
<rect width="990" height="990" fill="#ffffff" cx="0" cy="0" />
<defs>
<rect id="p" width="30" height="30" />
</defs>
<g fill="#000000">
<use x="0" y="0" xlink:href="#p" />
<use x="30" y="0" xlink:href="#p" />
<use x="60" y="0" xlink:href="#p" />
<use x="90" y="0" xlink:href="#p" />
<use x="120" y="0" xlink:href="#p" />
<use x="150" y="0" xlink:href="#p" />
<use x="180" y="0" xlink:href="#p" />
<use x="330" y="0" xlink:href="#p" />
<use x="360" y="0" xlink:href="#p" />
<use x="420" y="0" xlink:href="#p" />
<use x="480" y="0" xlink:href="#p" />
<use x="510" y="0" xlink:href="#p" />
<use x="540" y="0" xlink:href="#p" />
<use x="570" y="0" xlink:href="#p" />
<use x="600" y="0" xlink:href="#p" />
<use x="630" y="0" xlink:href="#p" />
<use x="660" y="0" xlink:href="#p" />
<use x="720" y="0" xlink:href="#p" />
<use x="780" y="0" xlink:href="#p" />
<use x="810" y="0" xlink:href="#p" />
<use x="840" y="0" xlink:href="#p" />
<use x="870" y="0" xlink:href="#p" />
<use x="900" y="0" xlink:href="#p" />
<use x="930" y="0" xlink:href="#p" />
<use x="960" y="0" xlink:href="#p" />
<use x="0" y="30" xlink:href="#p" />
<use x="180" y="30" xlink:href="#p" />
<use x="330" y="30" xlink:href="#p" />
<use x="360" y="30" xlink:href="#p" />
<use x="420" y="30" xlink:href="#p" />
<use x="600" y="30" xlink:href="#p" />
<use x="660" y="30" xlink:href="#p" />
<use x="720" y="30" xlink:href="#p" />
<use x="780" y="30" xlink:href="#p" />
<use x="960" y="30" xlink:href="#p" />
<use x="0" y="60" xlink:href="#p" />
<use x="60" y="60" xlink:href="#p" />
<use x="90" y="60" xlink:href="#p" />
<use x="120" y="60" xlink:href="#p" />
<use x="180" y="60" xlink:href="#p" />
<use x="240" y="60" xlink:href="#p" />
<use x="300" y="60" xlink:href="#p" />
<use x="330" y="60" xlink:href="#p" />
<use x="390" y="60" xlink:href="#p" />
<use x="450" y="60" xlink:href="#p" />
<use x="480" y="60" xlink:href="#p" />
<use x="540" y="60" xlink:href="#p" />
<use x="570" y="60" xlink:href="#p" />
<use x="600" y="60" xlink:href="#p" />
<use x="630" y="60" xlink:href="#p" />
<use x="660" y="60" xlink:href="#p" />
<use x="690" y="60" xlink:href="#p" />
<use x="720" y="60" xlink:href="#p" />
<use x="780" y="60" xlink:href="#p" />
<use x="840" y="60" xlink:href="#p" />
<use x="870" y="60" xlink:href="#p" />
<use x="900" y="60" xlink:href="#p" />
<use x="960" y="60" xlink:href="#p" />
<use x="0" y="90" xlink:href="#p" />
<use x="60" y="90" xlink:href="#p" />
<use x="90" y="90" xlink:href="#p" />
<use x="120" y="90" xlink:href="#p" />
<use x="180" y="90" xlink:href="#p" />
<use x="240" y="90" xlink:href="#p" />
<use x="360" y="90" xlink:href="#p" />
<use x="450" y="90" xlink:href="#p" />
<use x="480" y="90" xlink:href="#p" />
<use x="510" y="90" xlink:href="#p" />
<use x="570" y="90" xlink:href="#p" />
<use x="630" y="90" xlink:href="#p" />
<use x="690" y="90" xlink:href="#p" />
<use x="780" y="90" xlink:href="#p" />
<use x="840" y="90" xlink:href="#p" />
<use x="870" y="90" xlink:href="#p" />
<use x="900" y="90" xlink:href="#p" />
<use x="960" y="90" xlink:href="#p" />
<use x="0" y="120" xlink:href="#p" />
<use x="60" y="120" xlink:href="#p" />
<use x="90" y="120" xlink:href="#p" />
<use x="120" y="120" xlink:href="#p" />
<use x="180" y="120" xlink:href="#p" />
<use x="330" y="120" xlink:href="#p" />
<use x="360" y="120" xlink:href="#p" />
<use x="390" y="120" xlink:href="#p" />
<use x="420" y="120" xlink:href="#p" />
<use x="510" y="120" xlink:href="#p" />
<use x="630" y="120" xlink:href="#p" />
<use x="660" y="120" xlink:href="#p" />
<use x="690" y="120" xlink:href="#p" />
<use x="720" y="120" xlink:href="#p" />
<use x="780" y="120" xlink:href="#p" />
<use x="840" y="120" xlink:href="#p" />
<use x="870" y="120" xlink:href="#p" />
<use x="900" y="120" xlink:href="#p" />
<use x="960" y="120" xlink:href="#p" />
<use x="0" y="150" xlink:href="#p" />
<use x="180" y="150" xlink:href="#p" />
<use x="270" y="150" xlink:href="#p" />
<use x="300" y="150" xlink:href="#p" />
<use x="330" y="150" xlink:href="#p" />
<use x="390" y="150" xlink:href="#p" />
<use x="420" y="150" xlink:href="#p" />
<use x="450" y="150" xlink:href="#p" />
<use x="480" y="150" xlink:href="#p" />
<use x="690" y="150" xlink:href="#p" />
<use x="780" y="150" xlink:href="#p" />
<use x="960" y="150" xlink:href="#p" />
<use x="0" y="180" xlink:href="#p" />
<use x="30" y="180" xlink:href="#p" />
<use x="60" y="180" xlink:href="#p" />
<use x="90" y="180" xlink:href="#p" />
<use x="120" y="180" xlink:href="#p" />
<use x="150" y="180" xlink:href="#p" />
<use x="180" y="180" xlink:href="#p" />
<use x="240" y="180" xlink:href="#p" />
<use x="300" y="180" xlink:href="#p" />
<use x="360" y="180" xlink:href="#p" />
<use x="420" y="180" xlink:href="#p" />
<use x="480" y="180" xlink:href="#p" />
<use x="540" y="180" xlink:href="#p" />
<use x="600" y="180" xlink:href="#p" />
<use x="660" y="180" xlink:href="#p" />
<use x="720" y="180" xlink:href="#p" />
<use x="780" y="180" xlink:href="#p" />
<use x="810" y="180" xlink:href="#p" />
<use x="840" y="180" xlink:href="#p" />
<use x="870" y="180" xlink:href="#p" />
<use x="900" y="180" xlink:href="#p" />
<use x="930" y="180" xlink:href="#p" />
<use x="960" y="180" xlink:href="#p" />
<use x="270" y="210" xlink:href="#p" />
<use x="330" y="210" xlink:href="#p" />
<use x="390" y="210" xlink:href="#p" />
<use x="420" y="210" xlink:href="#p" />
<use x="480" y="210" xlink:href="#p" />
<use x="660" y="210" xlink:href="#p" />
<use x="720" y="210" xlink:href="#p" />
<use x="90" y="240" xlink:href="#p" />
<use x="120" y="240" xlink:href="#p" />
<use x="180" y="240" xlink:href="#p" />
<use x="210" y="240" xlink:href="#p" />
<use x="270" y="240" xlink:href="#p" />
<use x="300" y="240" xlink:href="#p" />
<use x="330" y="240" xlink:href="#p" />
<use x="360" y="240" xlink:href="#p" />
<use x="450" y="240" xlink:href="#p" />
<use x="510" y="240" xlink:href="#p" />
<use x="540" y="240" xlink:href="#p" />
<use x="570" y="240" xlink:href="#p" />
<use x="720" y="240" xlink:href="#p" />
<use x="870" y="240" xlink:href="#p" />
<use x="900" y="240" xlink:href="#p" />
<use x="90" y="270" xlink:href="#p" />
<use x="120" y="270" xlink:href="#p" />
<use x="150" y="270" xlink:href="#p" />
<use x="240" y="270" xlink:href="#p" />
<use x="270" y="270" xlink:href="#p" />
<use x="300" y="270" xlink:href="#p" />
<use x="330" y="270" xlink:href="#p" />
<use x="360" y="270" xlink:href="#p" />
<use x="480" y="270" xlink:href="#p" />
<use x="540" y="270" xlink:href="#p" />
<use x="570" y="270" xlink:href="#p" />
<use x="630" y="270" xlink:href="#p" />
<use x="660" y="270" xlink:href="#p" />
<use x="690" y="270" xlink:href="#p" />
<use x="750" y="270" xlink:href="#p" />
<use x="810" y="270" xlink:href="#p" />
<use x="840" y="270" xlink:href="#p" />
<use x="870" y="270" xlink:href="#p" />
<use x="0" y="300" xlink:href="#p" />
<use x="30" y="300" xlink:href="#p" />
<use x="60" y="300" xlink:href="#p" />
<use x="180" y="300" xlink:href="#p" />
<use x="210" y="300" xlink:href="#p" />
<use x="240" y="300" xlink:href="#p" />
<use x="360" y="300" xlink:href="#p" />
<use x="420" y="300" xlink:href="#p" />
<use x="450" y="300" xlink:href="#p" />
<use x="540" y="300" xlink:href="#p" />
<use x="660" y="300" xlink:href="#p" />
<use x="690" y="300" xlink:href="#p" />
<use x="720" y="300" xlink:href="#p" />
<use x="750" y="300" xlink:href="#p" />
<use x="810" y="300" xlink:href="#p" />
<use x="870" y="300" xlink:href="#p" />
<use x="930" y="300" xlink:href="#p" />
<use x="960" y="300" xlink:href="#p" />
<use x="90" y="330" xlink:href="#p" />
<use x="150" y="330" xlink:href="#p" />
<use x="210" y="330" xlink:href="#p" />
<use x="330" y="330" xlink:href="#p" />
<use x="420" y="330" xlink:href="#p" />
<use x="450" y="330" xlink:href="#p" />
<use x="510" y="330" xlink:href="#p" />
<use x="570" y="330" xlink:href="#p" />
<use x="600" y="330" xlink:href="#p" />
<use x="630" y="330" xlink:href="#p" />
<use x="660" y="330" xlink:href="#p" />
<use x="720" y="330" xlink:href="#p" />
<use x="780" y="330" xlink:href="#p" />
<use x="810" y="330" xlink:href="#p" />
<use x="840" y="330" xlink:href="#p" />
<use x="900" y="330" xlink:href="#p" />
<use x="930" y="330" xlink:href="#p" />
<use x="960" y="330" xlink:href="#p" />
<use x="60" y="360" xlink:href="#p" />
<use x="90" y="360" xlink:href="#p" />
<use x="120" y="360" xlink:href="#p" />
<use x="180" y="360" xlink:href="#p" />
<use x="210" y="360" xlink:href="#p" />
<use x="240" y="360" xlink:href="#p" />
<use x="330" y="360" xlink:href="#p" />
<use x="390" y="360" xlink:href="#p" />
<use x="420" y="360" xlink:href="#p" />
<use x="480" y="360" xlink:href="#p" />
<use x="510" y="360" xlink:href="#p" />
<use x="540" y="360" xlink:href="#p" />
<use x="630" y="360" xlink:href="#p" />
<use x="690" y="360" xlink:href="#p" />
<use x="720" y="360" xlink:href="#p" />
<use x="780" y="360" xlink:href="#p" />
<use x="810" y="360" xlink:href="#p" />
<use x="840" y="360" xlink:href="#p" />
<use x="870" y="360" xlink:href="#p" />
<use x="960" y="360" xlink:href="#p" />
<use x="0" y="390" xlink:href="#p" />
<use x="90" y="390" xlink:href="#p" />
<use x="120" y="390" xlink:href="#p" />
<use x="210" y="390" xlink:href="#p" />
<use x="240" y="390" xlink:href="#p" />
<use x="270" y="390" xlink:href="#p" />
<use x="300" y="390" xlink:href="#p" />
<use x="330" y="390" xlink:href="#p" />
<use x="360" y="390" xlink:href="#p" />
<use x="450" y="390" xlink:href="#p" />
<use x="540" y="390" xlink:href="#p" />
<use x="570" y="390" xlink:href="#p" />
<use x="630" y="390" xlink:href="#p" />
<use x="690" y="390" xlink:href="#p" />
<use x="750" y="390" xlink:href="#p" />
<use x="810" y="390" xlink:href="#p" />
<use x="840" y="390" xlink:href="#p" />
<use x="900" y="390" xlink:href="#p" />
<use x="930" y="390" xlink:href="#p" />
<use x="0" y="420" xlink:href="#p" />
<use x="30" y="420" xlink:href="#p" />
<use x="60" y="420" xlink:href="#p" />
<use x="90" y="420" xlink:href="#p" />
<use x="120" y="420" xlink:href="#p" />
<use x="150" y="420" xlink:href="#p" />
<use x="180" y="420" xlink:href="#p" />
<use x="210" y="420" xlink:href="#p" />
<use x="270" y="420" xlink:href="#p" />
<use x="330" y="420" xlink:href="#p" />
<use x="390" y="420" xlink:href="#p" />
<use x="450" y="420" xlink:href="#p" />
<use x="600" y="420" xlink:href="#p" />
<use x="720" y="420" xlink:href="#p" />
<use x="780" y="420" xlink:href="#p" />
<use x="810" y="420" xlink:href="#p" />
<use x="870" y="420" xlink:href="#p" />
<use x="30" y="450" xlink:href="#p" />
<use x="90" y="450" xlink:href="#p" />
<use x="120" y="450" xlink:href="#p" />
<use x="270" y="450" xlink:href="#p" />
<use x="420" y="450" xlink:href="#p" />
<use x="570" y="450" xlink:href="#p" />
<use x="690" y="450" xlink:href="#p" />
<use x="720" y="450" xlink:href="#p" />
<use x="750" y="450" xlink:href="#p" />
<use x="780" y="450" xlink:href="#p" />
<use x="810" y="450" xlink:href="#p" />
<use x="870" y="450" xlink:href="#p" />
<use x="900" y="450" xlink:href="#p" />
<use x="960" y="450" xlink:href="#p" />
<use x="30" y="480" xlink:href="#p" />
<use x="90" y="480" xlink:href="#p" />
<use x="120" y="480" xlink:href="#p" />
<use x="150" y="480" xlink:href="#p" />
<use x="180" y="480" xlink:href="#p" />
<use x="210" y="480" xlink:href="#p" />
<use x="240" y="480" xlink:href="#p" />
<use x="270" y="480" xlink:href="#p" />
<use x="600" y="480" xlink:href="#p" />
<use x="690" y="480" xlink:href="#p" />
<use x="780" y="480" xlink:href="#p" />
<use x="810" y="480" xlink:href="#p" />
<use x="840" y="480" xlink:href="#p" />
<use x="870" y="480" xlink:href="#p" />
<use x="930" y="480" xlink:href="#p" />
<use x="0" y="510" xlink:href="#p" />
<use x="30" y="510" xlink:href="#p" />
<use x="150" y="510" xlink:href="#p" />
<use x="210" y="510" xlink:href="#p" />
<use x="300" y="510" xlink:href="#p" />
<use x="360" y="510" xlink:href="#p" />
<use x="450" y="510" xlink:href="#p" />
<use x="480" y="510" xlink:href="#p" />
<use x="570" y="510" xlink:href="#p" />
<use x="600" y="510" xlink:href="#p" />
<use x="660" y="510" xlink:href="#p" />
<use x="720" y="510" xlink:href="#p" />
<use x="780" y="510" xlink:href="#p" />
<use x="810" y="510" xlink:href="#p" />
<use x="840" y="510" xlink:href="#p" />
<use x="870" y="510" xlink:href="#p" />
<use x="930" y="510" xlink:href="#p" />
<use x="960" y="510" xlink:href="#p" />
<use x="30" y="540" xlink:href="#p" />
<use x="150" y="540" xlink:href="#p" />
<use x="180" y="540" xlink:href="#p" />
<use x="240" y="540" xlink:href="#p" />
<use x="270" y="540" xlink:href="#p" />
<use x="330" y="540" xlink:href="#p" />
<use x="420" y="540" xlink:href="#p" />
<use x="480" y="540" xlink:href="#p" />
<use x="510" y="540" xlink:href="#p" />
<use x="540" y="540" xlink:href="#p" />
<use x="630" y="540" xlink:href="#p" />
<use x="660" y="540" xlink:href="#p" />
<use x="690" y="540" xlink:href="#p" />
<use x="750" y="540" xlink:href="#p" />
<use x="780" y="540" xlink:href="#p" />
<use x="870" y="540" xlink:href="#p" />
<use x="900" y="540" xlink:href="#p" />
<use x="960" y="540" xlink:href="#p" />
<use x="30" y="570" xlink:href="#p" />
<use x="60" y="570" xlink:href="#p" />
<use x="90" y="570" xlink:href="#p" />
<use x="120" y="570" xlink:href="#p" />
<use x="330" y="570" xlink:href="#p" />
<use x="360" y="570" xlink:href="#p" />
<use x="390" y="570" xlink:href="#p" />
<use x="450" y="570" xlink:href="#p" />
<use x="540" y="570" xlink:href="#p" />
<use x="570" y="570" xlink:href="#p" />
<use x="600" y="570" xlink:href="#p" />
<use x="660" y="570" xlink:href="#p" />
<use x="690" y="570" xlink:href="#p" />
<use x="720" y="570" xlink:href="#p" />
<use x="780" y="570" xlink:href="#p" />
<use x="810" y="570" xlink:href="#p" />
<use x="840" y="570" xlink:href="#p" />
<use x="870" y="570" xlink:href="#p" />
<use x="900" y="570" xlink:href="#p" />
<use x="930" y="570" xlink:href="#p" />
<use x="960" y="570" xlink:href="#p" />
<use x="90" y="600" xlink:href="#p" />
<use x="120" y="600" xlink:href="#p" />
<use x="150" y="600" xlink:href="#p" />
<use x="180" y="600" xlink:href="#p" />
<use x="210" y="600" xlink:href="#p" />
<use x="300" y="600" xlink:href="#p" />
<use x="330" y="600" xlink:href="#p" />
<use x="360" y="600" xlink:href="#p" />
<use x="480" y="600" xlink:href="#p" />
<use x="510" y="600" xlink:href="#p" />
<use x="540" y="600" xlink:href="#p" />
<use x="600" y="600" xlink:href="#p" />
<use x="720" y="600" xlink:href="#p" />
<use x="750" y="600" xlink:href="#p" />
<use x="810" y="600" xlink:href="#p" />
<use x="870" y="600" xlink:href="#p" />
<use x="930" y="600" xlink:href="#p" />
<use x="960" y="600" xlink:href="#p" />
<use x="0" y="630" xlink:href="#p" />
<use x="30" y="630" xlink:href="#p" />
<use x="60" y="630" xlink:href="#p" />
<use x="150" y="630" xlink:href="#p" />
<use x="210" y="630" xlink:href="#p" />
<use x="240" y="630" xlink:href="#p" />
<use x="270" y="630" xlink:href="#p" />
<use x="300" y="630" xlink:href="#p" />
<use x="420" y="630" xlink:href="#p" />
<use x="450" y="630" xlink:href="#p" />
<use x="480" y="630" xlink:href="#p" />
<use x="540" y="630" xlink:href="#p" />
<use x="630" y="630" xlink:href="#p" />
<use x="750" y="630" xlink:href="#p" />
<use x="780" y="630" xlink:href="#p" />
<use x="810" y="630" xlink:href="#p" />
<use x="840" y="630" xlink:href="#p" />
<use x="870" y="630" xlink:href="#p" />
<use x="0" y="660" xlink:href="#p" />
<use x="60" y="660" xlink:href="#p" />
<use x="90" y="660" xlink:href="#p" />
<use x="150" y="660" xlink:href="#p" />
<use x="180" y="660" xlink:href="#p" />
<use x="210" y="660" xlink:href="#p" />
<use x="240" y="660" xlink:href="#p" />
<use x="390" y="660" xlink:href="#p" />
<use x="480" y="660" xlink:href="#p" />
<use x="510" y="660" xlink:href="#p" />
<use x="570" y="660" xlink:href="#p" />
<use x="720" y="660" xlink:href="#p" />
<use x="780" y="660" xlink:href="#p" />
<use x="810" y="660" xlink:href="#p" />
<use x="840" y="660" xlink:href="#p" />
<use x="960" y="660" xlink:href="#p" />
<use x="0" y="690" xlink:href="#p" />
<use x="120" y="690" xlink:href="#p" />
<use x="150" y="690" xlink:href="#p" />
<use x="210" y="690" xlink:href="#p" />
<use x="270" y="690" xlink:href="#p" />
<use x="300" y="690" xlink:href="#p" />
<use x="360" y="690" xlink:href="#p" />
<use x="480" y="690" xlink:href="#p" />
<use x="540" y="690" xlink:href="#p" />
<use x="570" y="690" xlink:href="#p" />
<use x="600" y="690" xlink:href="#p" />
<use x="810" y="690" xlink:href="#p" />
<use x="870" y="690" xlink:href="#p" />
<use x="900" y="690" xlink:href="#p" />
<use x="960" y="690" xlink:href="#p" />
<use x="0" y="720" xlink:href="#p" />
<use x="30" y="720" xlink:href="#p" />
<use x="60" y="720" xlink:href="#p" />
<use x="90" y="720" xlink:href="#p" />
<use x="120" y="720" xlink:href="#p" />
<use x="150" y="720" xlink:href="#p" />
<use x="180" y="720" xlink:href="#p" />
<use x="240" y="720" xlink:href="#p" />
<use x="420" y="720" xlink:href="#p" />
<use x="450" y="720" xlink:href="#p" />
<use x="480" y="720" xlink:href="#p" />
<use x="540" y="720" xlink:href="#p" />
<use x="570" y="720" xlink:href="#p" />
<use x="600" y="720" xlink:href="#p" />
<use x="720" y="720" xlink:href="#p" />
<use x="750" y="720" xlink:href="#p" />
<use x="780" y="720" xlink:href="#p" />
<use x="810" y="720" xlink:href="#p" />
<use x="840" y="720" xlink:href="#p" />
<use x="870" y="720" xlink:href="#p" />
<use x="930" y="720" xlink:href="#p" />
<use x="960" y="720" xlink:href="#p" />
<use x="240" y="750" xlink:href="#p" />
<use x="300" y="750" xlink:href="#p" />
<use x="330" y="750" xlink:href="#p" />
<use x="420" y="750" xlink:href="#p" />
<use x="450" y="750" xlink:href="#p" />
<use x="480" y="750" xlink:href="#p" />
<use x="510" y="750" xlink:href="#p" />
<use x="540" y="750" xlink:href="#p" />
<use x="600" y="750" xlink:href="#p" />
<use x="660" y="750" xlink:href="#p" />
<use x="720" y="750" xlink:href="#p" />
<use x="840" y="750" xlink:href="#p" />
<use x="900" y="750" xlink:href="#p" />
<use x="930" y="750" xlink:href="#p" />
<use x="0" y="780" xlink:href="#p" />
<use x="30" y="780" xlink:href="#p" />
<use x="60" y="780" xlink:href="#p" />
<use x="90" y="780" xlink:href="#p" />
<use x="120" y="780" xlink:href="#p" />
<use x="150" y="780" xlink:href="#p" />
<use x="180" y="780" xlink:href="#p" />
<use x="240" y="780" xlink:href="#p" />
<use x="330" y="780" xlink:href="#p" />
<use x="420" y="780" xlink:href="#p" />
<use x="450" y="780" xlink:href="#p" />
<use x="480" y="780" xlink:href="#p" />
<use x="510" y="780" xlink:href="#p" />
<use x="540" y="780" xlink:href="#p" />
<use x="570" y="780" xlink:href="#p" />
<use x="600" y="780" xlink:href="#p" />
<use x="630" y="780" xlink:href="#p" />
<use x="660" y="780" xlink:href="#p" />
<use x="690" y="780" xlink:href="#p" />
<use x="720" y="780" xlink:href="#p" />
<use x="780" y="780" xlink:href="#p" />
<use x="840" y="780" xlink:href="#p" />
<use x="870" y="780" xlink:href="#p" />
<use x="0" y="810" xlink:href="#p" />
<use x="180" y="810" xlink:href="#p" />
<use x="300" y="810" xlink:href="#p" />
<use x="390" y="810" xlink:href="#p" />
<use x="510" y="810" xlink:href="#p" />
<use x="540" y="810" xlink:href="#p" />
<use x="570" y="810" xlink:href="#p" />
<use x="690" y="810" xlink:href="#p" />
<use x="720" y="810" xlink:href="#p" />
<use x="840" y="810" xlink:href="#p" />
<use x="870" y="810" xlink:href="#p" />
<use x="900" y="810" xlink:href="#p" />
<use x="930" y="810" xlink:href="#p" />
<use x="0" y="840" xlink:href="#p" />
<use x="60" y="840" xlink:href="#p" />
<use x="90" y="840" xlink:href="#p" />
<use x="120" y="840" xlink:href="#p" />
<use x="180" y="840" xlink:href="#p" />
<use x="240" y="840" xlink:href="#p" />
<use x="300" y="840" xlink:href="#p" />
<use x="330" y="840" xlink:href="#p" />
<use x="360" y="840" xlink:href="#p" />
<use x="390" y="840" xlink:href="#p" />
<use x="450" y="840" xlink:href="#p" />
<use x="540" y="840" xlink:href="#p" />
<use x="570" y="840" xlink:href="#p" />
<use x="630" y="840" xlink:href="#p" />
<use x="690" y="840" xlink:href="#p" />
<use x="720" y="840" xlink:href="#p" />
<use x="750" y="840" xlink:href="#p" />
<use x="780" y="840" xlink:href="#p" />
<use x="810" y="840" xlink:href="#p" />
<use x="840" y="840" xlink:href="#p" />
<use x="870" y="840" xlink:href="#p" />
<use x="930" y="840" xlink:href="#p" />
<use x="0" y="870" xlink:href="#p" />
<use x="60" y="870" xlink:href="#p" />
<use x="90" y="870" xlink:href="#p" />
<use x="120" y="870" xlink:href="#p" />
<use x="180" y="870" xlink:href="#p" />
<use x="240" y="870" xlink:href="#p" />
<use x="300" y="870" xlink:href="#p" />
<use x="360" y="870" xlink:href="#p" />
<use x="390" y="870" xlink:href="#p" />
<use x="420" y="870" xlink:href="#p" />
<use x="450" y="870" xlink:href="#p" />
<use x="480" y="870" xlink:href="#p" />
<use x="510" y="870" xlink:href="#p" />
<use x="570" y="870" xlink:href="#p" />
<use x="630" y="870" xlink:href="#p" />
<use x="750" y="870" xlink:href="#p" />
<use x="810" y="870" xlink:href="#p" />
<use x="900" y="870" xlink:href="#p" />
<use x="930" y="870" xlink:href="#p" />
<use x="0" y="900" xlink:href="#p" />
<use x="60" y="900" xlink:href="#p" />
<use x="90" y="900" xlink:href="#p" />
<use x="120" y="900" xlink:href="#p" />
<use x="180" y="900" xlink:href="#p" />
<use x="270" y="900" xlink:href="#p" />
<use x="330" y="900" xlink:href="#p" />
<use x="390" y="900" xlink:href="#p" />
<use x="420" y="900" xlink:href="#p" />
<use x="480" y="900" xlink:href="#p" />
<use x="510" y="900" xlink:href="#p" />
<use x="600" y="900" xlink:href="#p" />
<use x="660" y="900" xlink:href="#p" />
<use x="840" y="900" xlink:href="#p" />
<use x="870" y="900" xlink:href="#p" />
<use x="900" y="900" xlink:href="#p" />
<use x="930" y="900" xlink:href="#p" />
<use x="960" y="900" xlink:href="#p" />
<use x="0" y="930" xlink:href="#p" />
<use x="180" y="930" xlink:href="#p" />
<use x="270" y="930" xlink:href="#p" />
<use x="300" y="930" xlink:href="#p" />
<use x="450" y="930" xlink:href="#p" />
<use x="480" y="930" xlink:href="#p" />
<use x="540" y="930" xlink:href="#p" />
<use x="570" y="930" xlink:href="#p" />
<use x="600" y="930" xlink:href="#p" />
<use x="660" y="930" xlink:href="#p" />
<use x="690" y="930" xlink:href="#p" />
<use x="900" y="930" xlink:href="#p" />
<use x="930" y="930" xlink:href="#p" />
<use x="960" y="930" xlink:href="#p" />
<use x="0" y="960" xlink:href="#p" />
<use x="30" y="960" xlink:href="#p" />
<use x="60" y="960" xlink:href="#p" />
<use x="90" y="960" xlink:href="#p" />
<use x="120" y="960" xlink:href="#p" />
<use x="150" y="960" xlink:href="#p" />
<use x="180" y="960" xlink:href="#p" />
<use x="270" y="960" xlink:href="#p" />
<use x="360" y="960" xlink:href="#p" />
<use x="420" y="960" xlink:href="#p" />
<use x="450" y="960" xlink:href="#p" />
<use x="480" y="960" xlink:href="#p" />
<use x="540" y="960" xlink:href="#p" />
<use x="570" y="960" xlink:href="#p" />
<use x="690" y="960" xlink:href="#p" />
<use x="720" y="960" xlink:href="#p" />
<use x="780" y="960" xlink:href="#p" />
<use x="840" y="960" xlink:href="#p" />
<use x="900" y="960" xlink:href="#p" />
</g>
</svg>